<svg xmlns="http://www.w3.org/2000/svg" width="16" height="300" viewBox="0 0 160 3000">
  <mask id="a" fill="#fff">
    <path d="M0 0h160v3040H0z"/>
  </mask>
  <path fill="#013" d="M120 36.3c-1.8 2-3.7 3.8-5.8 5.5 2 1.8 4 3.8 5.8 6 1.8-2.2 3.7-4.2 5.8-6a60 60 0 0 1-5.8-5.5zm0-72.6A53.9 53.9 0 0 1 214 0c0 16.9-7.7 32-19.8 41.8a51.9 51.9 0 0 1-2.9 80.7 50.4 50.4 0 0 1-3.2 82.3 49 49 0 0 1-1.4 81.3 48 48 0 0 1-5.4 83 45.5 45.5 0 0 1-3.5 82.5 43.5 43.5 0 0 1-6.3 82 42 42 0 0 1-5 82A41 41 0 1 1 120 665a41 41 0 0 1-80 0 41 41 0 1 1-46.5-49.5 42 42 0 0 1-4.5-82 43.5 43.5 0 0 1-5.8-82 45.5 45.5 0 0 1-4-82.2 48 48 0 0 1-5.9-83.2 49 49 0 0 1-.9-81.6 50.5 50.5 0 0 1-3.2-81.6 52 52 0 0 1-3.4-81A53.9 53.9 0 1 1 40-36.4a53.9 53.9 0 0 1 80 0zm0 150.5a52.5 52.5 0 0 1-8.7 8.3 50 50 0 0 1 9.2 9.2c2.5-3.3 5.4-6.3 8.7-8.8a52.3 52.3 0 0 1-9.2-8.7zm.5 79.1a50.8 50.8 0 0 1-12.4 11.5c4.6 3.3 8.6 7.3 11.9 11.9a48 48 0 0 1 12.4-12.2c-4.5-3-8.6-6.8-11.9-11.2zm-.5 80c-3.6 5-8.1 9.4-13.3 12.8a46 46 0 0 1 13.3 13.4c3.5-5.3 8-9.9 13.3-13.4a49.3 49.3 0 0 1-13.3-12.8zm0 79.2a48.2 48.2 0 0 1-18.7 16.5 45.7 45.7 0 0 1 19.2 18.8 45.7 45.7 0 0 1 18.7-18.5 48.2 48.2 0 0 1-19.2-16.8zm.5 78.7a46 46 0 0 1-22.7 20.4 43.7 43.7 0 0 1 22.7 22.8 43.7 43.7 0 0 1 22.7-22.8 45.7 45.7 0 0 1-22.7-20.4zm0 77.4a43.6 43.6 0 0 1-29 25 42 42 0 0 1 28.5 27.6 42 42 0 0 1 29-27.7 43.6 43.6 0 0 1-28.5-24.9zm-.5 78.2a42 42 0 0 1-33.5 28.7A41 41 0 0 1 120 647a41 41 0 0 1 33.5-31.5 42 42 0 0 1-33.5-28.7zM40 36.3c-1.8 2-3.7 3.8-5.8 5.5 2 1.8 4 3.8 5.8 6 1.8-2.2 3.7-4.2 5.8-6a60 60 0 0 1-5.8-5.5zm0 78c-2.6 3-5.5 5.8-8.7 8.2a50 50 0 0 1 9.2 9.2c2.5-3.3 5.4-6.3 8.7-8.8a52.3 52.3 0 0 1-9.2-8.7zm.5 79c3.3 4.4 7.4 8.1 12 11.2A48.3 48.3 0 0 0 40 216.7a49.3 49.3 0 0 0-12-11.9c4.8-3 9-7 12.5-11.5zm-.5 80c-3.6 5-8.1 9.4-13.3 12.8A46 46 0 0 1 40 299.5c3.5-5.3 8-9.9 13.3-13.4A49.3 49.3 0 0 1 40 273.3zm0 79.2A48.2 48.2 0 0 1 21.3 369a45.7 45.7 0 0 1 19.2 18.8 45.7 45.7 0 0 1 18.7-18.5A48.2 48.2 0 0 1 40 352.5zm.5 78.7a46 46 0 0 1-22.7 20.4 43.7 43.7 0 0 1 22.7 22.8 43.7 43.7 0 0 1 22.7-22.8 45.7 45.7 0 0 1-22.7-20.4zm0 77.4a43.6 43.6 0 0 1-29 25A42 42 0 0 1 40 561.2a42 42 0 0 1 29-27.7 43.6 43.6 0 0 1-28.5-24.9zm-.5 78.2a42 42 0 0 1-33.5 28.7A41 41 0 0 1 40 647a41 41 0 0 1 33.5-31.5A42 42 0 0 1 40 586.8zM80 2959a5 5 0 1 1 0-10 5 5 0 0 1 0 10zm.5-80a6.5 6.5 0 1 1 0-13 6.5 6.5 0 0 1 0 13zm-.5-80a8 8 0 1 1 0-16 8 8 0 0 1 0 16zm0-82a9 9 0 1 1 0-18 9 9 0 0 1 0 18zm.5-80a10.5 10.5 0 1 1 0-21 10.5 10.5 0 0 1 0 21zm0-81a11.5 11.5 0 1 1 0-23 11.5 11.5 0 0 1 0 23zm-.5-81a13 13 0 1 1 0-26 13 13 0 0 1 0 26zm0-81a14 14 0 1 1 0-28 14 14 0 0 1 0 28zm.5-81a15.5 15.5 0 1 1 0-31 15.5 15.5 0 0 1 0 31zm0-81a16.5 16.5 0 1 1 0-33 16.5 16.5 0 0 1 0 33zm-.5-80a18 18 0 1 1 0-36 18 18 0 0 1 0 36zm0-82a19 19 0 1 1 0-38 19 19 0 0 1 0 38zm.5-80a20.5 20.5 0 1 1 0-41 20.5 20.5 0 0 1 0 41zm0-81a21.5 21.5 0 1 1 0-43 21.5 21.5 0 0 1 0 43zm0-80a23.5 23.5 0 1 1 0-47 23.5 23.5 0 0 1 0 47zm0-81a24.5 24.5 0 1 1 0-49 24.5 24.5 0 0 1 0 49zm0-81a25.5 25.5 0 1 1 0-51 25.5 25.5 0 0 1 0 51zm-.5-81a27 27 0 1 1 0-54 27 27 0 0 1 0 54zm0-81a28 28 0 1 1 0-56 28 28 0 0 1 0 56zm.5-81a29.5 29.5 0 1 1 0-59 29.5 29.5 0 0 1 0 59zm0-81a30.5 30.5 0 1 1 0-61 30.5 30.5 0 0 1 0 61zm-.5-80a32 32 0 1 1 0-64 32 32 0 0 1 0 64zm0-81a33 33 0 1 1 0-66 33 33 0 0 1 0 66zm.5-81a34.5 34.5 0 1 1 0-69 34.5 34.5 0 0 1 0 69zm0-81a35.5 35.5 0 1 1 0-71 35.5 35.5 0 0 1 0 71zm-.5-81a37 37 0 1 1 0-74 37 37 0 0 1 0 74zm.5-80a38.5 38.5 0 1 1 0-77 38.5 38.5 0 0 1 0 77zm0-81a39.5 39.5 0 1 1 0-79 39.5 39.5 0 0 1 0 79zM0 2959a5 5 0 1 1 0-10 5 5 0 0 1 0 10zm.5-80a6.5 6.5 0 1 1 0-13 6.5 6.5 0 0 1 0 13zm-.5-80a8 8 0 1 1 0-16 8 8 0 0 1 0 16zm0-82a9 9 0 1 1 0-18 9 9 0 0 1 0 18zm.5-80a10.5 10.5 0 1 1 0-21 10.5 10.5 0 0 1 0 21zm0-81a11.5 11.5 0 1 1 0-23 11.5 11.5 0 0 1 0 23zm-.5-81a13 13 0 1 1 0-26 13 13 0 0 1 0 26zm0-81a14 14 0 1 1 0-28 14 14 0 0 1 0 28zm.5-81a15.5 15.5 0 1 1 0-31 15.5 15.5 0 0 1 0 31zm0-81a16.5 16.5 0 1 1 0-33 16.5 16.5 0 0 1 0 33zm-.5-80a18 18 0 1 1 0-36 18 18 0 0 1 0 36zm0-82a19 19 0 1 1 0-38 19 19 0 0 1 0 38zm.5-80a20.5 20.5 0 1 1 0-41 20.5 20.5 0 0 1 0 41zm0-81a21.5 21.5 0 1 1 0-43 21.5 21.5 0 0 1 0 43zm0-80a23.5 23.5 0 1 1 0-47 23.5 23.5 0 0 1 0 47zm0-81a24.5 24.5 0 1 1 0-49 24.5 24.5 0 0 1 0 49zm0-81a25.5 25.5 0 1 1 0-51 25.5 25.5 0 0 1 0 51zm-.5-81a27 27 0 1 1 0-54 27 27 0 0 1 0 54zm0-81a28 28 0 1 1 0-56 28 28 0 0 1 0 56zm.5-81a29.5 29.5 0 1 1 0-59 29.5 29.5 0 0 1 0 59zm0-81a30.5 30.5 0 1 1 0-61 30.5 30.5 0 0 1 0 61zm-.5-80a32 32 0 1 1 0-64 32 32 0 0 1 0 64zm0-81a33 33 0 1 1 0-66 33 33 0 0 1 0 66zm.5-81a34.5 34.5 0 1 1 0-69 34.5 34.5 0 0 1 0 69zm0-81a35.5 35.5 0 1 1 0-71 35.5 35.5 0 0 1 0 71zM0 939a37 37 0 1 1 0-74 37 37 0 0 1 0 74zm.5-80a38.5 38.5 0 1 1 0-77 38.5 38.5 0 0 1 0 77zm0-81a39.5 39.5 0 1 1 0-79 39.5 39.5 0 0 1 0 79zM160 2959a5 5 0 1 1 0-10 5 5 0 0 1 0 10zm.5-80a6.5 6.5 0 1 1 0-13 6.5 6.5 0 0 1 0 13zm-.5-80a8 8 0 1 1 0-16 8 8 0 0 1 0 16zm0-82a9 9 0 1 1 0-18 9 9 0 0 1 0 18zm.5-80a10.5 10.5 0 1 1 0-21 10.5 10.5 0 0 1 0 21zm0-81a11.5 11.5 0 1 1 0-23 11.5 11.5 0 0 1 0 23zm-.5-81a13 13 0 1 1 0-26 13 13 0 0 1 0 26zm0-81a14 14 0 1 1 0-28 14 14 0 0 1 0 28zm.5-81a15.5 15.5 0 1 1 0-31 15.5 15.5 0 0 1 0 31zm0-81a16.5 16.5 0 1 1 0-33 16.5 16.5 0 0 1 0 33zm-.5-80a18 18 0 1 1 0-36 18 18 0 0 1 0 36zm0-82a19 19 0 1 1 0-38 19 19 0 0 1 0 38zm.5-80a20.5 20.5 0 1 1 0-41 20.5 20.5 0 0 1 0 41zm0-81a21.5 21.5 0 1 1 0-43 21.5 21.5 0 0 1 0 43zm0-80a23.5 23.5 0 1 1 0-47 23.5 23.5 0 0 1 0 47zm0-81a24.5 24.5 0 1 1 0-49 24.5 24.5 0 0 1 0 49zm0-81a25.5 25.5 0 1 1 0-51 25.5 25.5 0 0 1 0 51zm-.5-81a27 27 0 1 1 0-54 27 27 0 0 1 0 54zm0-81a28 28 0 1 1 0-56 28 28 0 0 1 0 56zm.5-81a29.5 29.5 0 1 1 0-59 29.5 29.5 0 0 1 0 59zm0-81a30.5 30.5 0 1 1 0-61 30.5 30.5 0 0 1 0 61zm-.5-80a32 32 0 1 1 0-64 32 32 0 0 1 0 64zm0-81a33 33 0 1 1 0-66 33 33 0 0 1 0 66zm.5-81a34.5 34.5 0 1 1 0-69 34.5 34.5 0 0 1 0 69zm0-81a35.5 35.5 0 1 1 0-71 35.5 35.5 0 0 1 0 71zm-.5-81a37 37 0 1 1 0-74 37 37 0 0 1 0 74zm.5-80a38.5 38.5 0 1 1 0-77 38.5 38.5 0 0 1 0 77zm0-81a39.5 39.5 0 1 1 0-79 39.5 39.5 0 0 1 0 79z" mask="url(#a)"/>
</svg>
