<svg version="1.1" xmlns="http://www.w3.org/2000/svg">
  <defs>
    <symbol id="ada" viewBox="0 0 512 512">
      <path d="M387 276c-1-7-7-12-14-12h-40l-11-27h25c7 0 13-5 14-13 0-7-6-13-13-13h-36L267 99a13 13 0 0 0-24 0l-43 112h-36c-7 0-13 5-14 12 0 7 6 14 13 14h26l-10 27h-40c-7 0-13 5-14 12 0 7 6 13 13 13h30l-35 91c-3 6 1 14 8 16l4 1c5 0 10-3 12-8l39-99h119l40 100c2 5 7 8 12 8l5-1c7-2 10-9 7-16l-37-91h30c9 0 15-6 15-14zM255 140l29 71h-56l27-71zm-48 124l10-27h76l11 27h-97zm49 225a233 233 0 1 0 0-466 233 233 0 0 0 0 466zm0 23a256 256 0 1 1 0-512 256 256 0 0 1 0 512z"/>
    </symbol>
    <symbol id="cardano" viewBox="0 0 512 512">
      <path d="M216 221c-13 0-25-7-30-19a34 34 0 1 1 30 19m-40 70h-2a34 34 0 0 1 4-68 34 34 0 0 1-2 68m40 69a34 34 0 0 1-28-53 34 34 0 1 1 28 53m80 0a34 34 0 0 1-32-45 34 34 0 0 1 62-4 34 34 0 0 1-30 49m40-70h-2a34 34 0 1 1 2 0m-40-70c-7 0-13-2-19-6a34 34 0 1 1 19 6M181 94a17 17 0 1 1-30 16 17 17 0 0 1 30-16M78 240a17 17 0 1 1-2 34 17 17 0 0 1 2-34m75 163a17 17 0 1 1 28 18 17 17 0 0 1-28-18m178 16a17 17 0 1 1 30-16 17 17 0 0 1-30 16m102-146a17 17 0 1 1 2-34 17 17 0 0 1-2 34m-74-163a17 17 0 1 1-28-18 17 17 0 0 1 28 18M145 42a11 11 0 1 1-20 10 11 11 0 0 1 20-10M15 246a11 11 0 1 1-2 22 11 11 0 0 1 2-22m111 215a11 11 0 1 1 18 12 11 11 0 0 1-18-12m241 10a11 11 0 1 1 20-10 11 11 0 0 1-20 10m130-204c-6 0-10-6-10-12a11 11 0 1 1 10 12M386 52a11 11 0 1 1-18-12 11 11 0 0 1 18 12M148 171a20 20 0 1 1-22 34 20 20 0 1 1 22-34m-20 137a20 20 0 1 1 18 36 20 20 0 0 1-18-36m107 85a20 20 0 1 1 40 2 20 20 0 0 1-40-2m129-51a20 20 0 1 1 22-34 20 20 0 0 1-22 34m20-137a20 20 0 1 1-18-36 20 20 0 0 1 18 36m-108-86a20 20 0 1 1-40-2 20 20 0 0 1 40 2M73 135c6 5 8 13 4 20a14 14 0 1 1-4-20M60 354a14 14 0 1 1 12 25 14 14 0 0 1-12-25m181 122a14 14 0 1 1 28 2 14 14 0 0 1-28-2m198-98a14 14 0 1 1 16-24 14 14 0 0 1-16 24m13-219a14 14 0 1 1-12-26 14 14 0 0 1 12 26M270 37a14 14 0 1 1-28-2 14 14 0 0 1 28 2"/>
    </symbol>
    <symbol id="checklist" viewBox="0 0 512 512">
      <path fill="currentColor" d="M161 62v59h190V62h-42c-7 0-13-5-14-12-4-20-16-33-38-33s-37 13-42 33c-1 7-7 12-14 12h-40z"/>
      <path d="M357 71h59c18 0 32 14 32 32v372c0 18-14 32-32 32H96c-18 0-32-14-32-32V103c0-18 14-32 32-32h59V53c0-7 5-12 12-12h35c8-22 30-36 54-36s44 12 53 36h36c7 0 12 5 12 12v18zm55 412c7 0 12-5 12-12V107c0-7-5-12-12-12h-55v30c0 7-5 12-12 12H167c-7 0-12-5-12-12V95h-55c-7 0-12 5-12 12v364c0 7 5 12 12 12h312zM178 65v48h155V65h-34c-6 0-11-4-12-10-3-16-13-27-31-27s-30 11-34 27c-1 5-5 10-11 10h-33zm-1 124a12 12 0 1 1 17 16l-25 26-11 11c-3 3-8 3-12 0l-19-20a12 12 0 1 1 16-16l9 8 25-25zm0 87a12 12 0 1 1 17 16l-25 26-11 11c-3 3-8 3-12 0l-19-20a12 12 0 1 1 16-16l9 8 25-25zm0 88a12 12 0 1 1 17 16l-25 26-11 11c-3 3-8 3-12 0l-19-20a12 12 0 1 1 16-16l9 8 25-25zm63-162h136a12 12 0 1 1 0 24H240a12 12 0 1 1 0-24zm0 88h136a12 12 0 1 1 0 24H240a12 12 0 1 1 0-24zm0 88h136a12 12 0 1 1 0 24H240a12 12 0 1 1 0-24z"/>
    </symbol>
    <symbol id="daedalus" viewBox="0 0 512 512">
      <path d="M224 428l-27-5-14-39 10-1 11 32 20 3 5-10c2-5 7-9 11-11v-9c-20-4-39-14-52-30l-5-6 9-5 4 5a82 82 0 0 0 54 28v52l-16-3c1 4 3 8 6 11 4 4 9 6 15 6s11-2 15-6c3-3 5-6 6-10l-15 2v-52l15-3a82 82 0 0 0 43-30l9 5-5 6a91 91 0 0 1-52 30v9l10 10 5 11 21-3 11-32 10 1-14 39-28 5a31 31 0 0 1-31 28 31 31 0 0 1-31-28zm17-19l-3 4c-2 2-2 5-3 7l6 1v-12zm35 10l-3-6-2-3v10l5-1zM431 56l81 107-90 96-52-13-2 20-13 2c-3-13-8-25-16-36l7-7c6 8 11 16 14 25l2-17 57 15 80-86-48-63 25 52-55 53-10-4 8-8 2-1 5-5 38-37-41-88 8-5zM271 200l31-29 13 1-10 9-9 9c10 3 20 8 29 15l-7 7c-9-6-20-11-31-14l-4 4-12-2zm57-27l53 3 28 12-8 8-22-10h-6l-29 29-11 10-7-7 7-7 5-5 22-21-41-3 9-9zm-67 70v-34l10 1v25c8 2 16 6 23 11l11-10c-7-6-15-11-24-14v-10c15 5 28 13 39 24l-16 14-3 3a73 73 0 0 1 14 20l-10 4v-2c-6-12-15-21-27-27l-17-5zm58 7l7-7c9 11 15 23 18 37l12-2 10-1-8 54-24 36-2 7-10-1 3-10 24-35 5-39h-5l-14 3-16 2 1 5c0 8-2 16-5 24l14 7c4-9 6-18 7-28l9-2c0 16-4 31-11 43l-22-11-1-1-7 10c-8 10-20 18-33 22v5l-10 2V253l10 3v96c10-3 19-9 26-17 8-10 13-23 13-36v-3l-15 2v25h-10v-34l49-7c-3-12-8-23-15-32zM81 56l8 5-41 88 38 37 5 5 2 1 8 8-10 4-55-53 25-52-48 63 81 86 56-15 2 17c4-9 8-17 14-25l7 7c-8 11-13 23-16 36l-13-2-2-20-52 13-90-96L81 56zm116 116l14-1 30 29-12 2-4-4c-11 3-22 8-31 14l-7-7c9-7 19-12 29-15l-9-9-10-9zm-66 4l53-3 9 9-41 3 22 21 5 5 7 7-7 7-11-10-29-29h-6l-22 10-8-8 28-12zm105 35l15-2v135l-10-3V220c-13 2-24 8-34 16l11 10 13-7v11c-11 6-20 15-25 27l-9-4c4-8 8-14 14-20l-3-3-16-15c12-12 27-20 44-24zm-68 69c3-14 9-26 18-37l7 7c-7 9-12 20-15 32l49 7v34h-10v-25l-15-2v3c0 13 5 26 13 36a66 66 0 0 0 22 16h1l2 1h1l10 3v15l-10-2v-5c-13-4-25-12-33-22l-7-9h-1l-22 11c-7-12-11-27-12-43l10 2c1 10 3 19 7 28l14-7c-3-8-5-16-5-24l1-5-16-2-14-3h-5l5 39 24 35 3 10-10 1-2-7-24-36-8-54 10 1 12 2z"/>
    </symbol>
    <symbol id="discussion" viewBox="0 0 512 512">
      <path fill="currentColor" d="M79 410a35 35 0 1 1 0-71h260a35 35 0 0 1 0 71H138l-47 47v-47H79zm12-236v-47H79a35 35 0 1 1 0-71h260a35 35 0 0 1 0 71H138l-47 47z"/>
      <path d="M173 280c-26 0-47-22-47-48s21-47 47-47h260c26 0 47 21 47 47s-21 48-47 48v35c0 11-13 16-20 8l-44-43H173zm283-48c0-13-10-23-23-23H173c-13 0-23 10-23 23s10 24 23 24h201c3 0 6 1 8 4l27 26v-18c0-7 5-12 12-12h12c13 0 23-11 23-24zM32 374c0-26 21-47 47-47h260c26 0 47 21 47 47s-21 48-47 48H143l-44 43c-7 8-20 3-20-8v-35c-26 0-47-22-47-48zm59 24c7 0 12 5 12 12v18l27-26c2-3 5-4 8-4h201c13 0 23-11 23-24s-10-23-23-23H79c-13 0-23 10-23 23s10 24 23 24h12zm52-259l-44 43c-7 8-20 3-20-8v-35c-26 0-47-22-47-48s21-47 47-47h260c26 0 47 21 47 47s-21 48-47 48H143zm-40 6l27-26c2-3 5-4 8-4h201c13 0 23-11 23-24s-10-23-23-23H79c-13 0-23 10-23 23s10 24 23 24h12c7 0 12 5 12 12v18z"/>
    </symbol>
    <symbol id="document" viewBox="0 0 512 512">
      <path fill="currentColor" d="M309 55v124h124z"/>
      <path d="M295 36c8 0 16 3 22 9l126 126c6 6 9 14 9 22v247c0 18-14 32-32 32H100c-18 0-32-14-32-32V68c0-18 14-32 32-32h195zm121 412c7 0 12-5 12-12V192H308c-7 0-12-5-12-12V60H104c-7 0-12 5-12 12v364c0 7 5 12 12 12h312zM143 96h102c6 0 11 5 11 12s-5 12-11 12H143c-6 0-11-5-11-12s5-12 11-12zm1 72h100a12 12 0 1 1 0 24H144a12 12 0 1 1 0-24zm0 72h240a12 12 0 1 1 0 24H144a12 12 0 1 1 0-24zm0 72h240a12 12 0 1 1 0 24H144a12 12 0 1 1 0-24zm0 72h240a12 12 0 1 1 0 24H144a12 12 0 1 1 0-24zm260-216l-84-84v84h84z"/>
    </symbol>
    <symbol id="educate" viewBox="0 0 512 512">
      <path fill="currentColor" d="M256 123L43 195l213 88 214-88z"/>
      <path d="M252 109h8l224 76c10 3 11 18 1 22l-224 92h-10L27 207c-10-4-9-19 1-22l224-76zm4 24L66 197l190 78 190-78-190-64zm124 100a12 12 0 1 1 24 0v111c0 3-1 6-4 9-60 59-228 59-288 0-3-3-4-6-4-9V233a12 12 0 1 1 24 0v106c53 45 195 45 248 0V233zm56-21a12 12 0 1 1 24 0v64a12 12 0 1 1-24 0v-64z"/>
    </symbol>
    <symbol id="features" viewBox="0 0 512 512">
      <path fill="currentColor" d="M308 288h148c11 0 20 9 20 20v148c0 11-9 20-20 20H308c-11 0-20-9-20-20V308c0-11 9-20 20-20z"/>
      <path d="M130 216a86 86 0 1 0 0-172 86 86 0 0 0 0 172zm0 24a110 110 0 1 1 0-220 110 110 0 0 1 0 220zm0 228a86 86 0 1 0 0-172 86 86 0 0 0 0 172zm0 24a110 110 0 1 1 0-220 110 110 0 0 1 0 220zm252-276a86 86 0 1 0 0-172 86 86 0 0 0 0 172zm0 24a110 110 0 1 1 0-220 110 110 0 0 1 0 220zm-82 72v140c0 7 5 12 12 12h140c7 0 12-5 12-12V312c0-7-5-12-12-12H312c-7 0-12 5-12 12zm8-36h148c18 0 32 14 32 32v148c0 18-14 32-32 32H308c-18 0-32-14-32-32V308c0-18 14-32 32-32z"/>
    </symbol>
    <symbol id="github" viewBox="0 0 512 512">
      <path d="M256 14a248 248 0 0 0-78 484c12 2 17-6 17-12l-1-43c-69 15-83-33-83-33-12-28-28-36-28-36-22-16 2-15 2-15 25 2 38 25 38 25 22 38 58 27 72 21 2-16 9-27 16-33-55-6-113-28-113-123 0-27 9-49 25-66-2-7-11-32 2-66 0 0 21-7 69 25a248 248 0 0 1 124 0c47-32 68-25 68-25 13 34 5 59 2 66 16 17 25 39 25 66 0 96-58 116-113 123 9 7 17 22 17 46v67c0 7 4 15 17 12a248 248 0 0 0-78-483"/>
    </symbol>
    <symbol id="interop" viewBox="0 0 512 512">
      <path d="M401 224c-51 0-93 41-93 92v68c0 38-29 68-66 68s-69-30-70-68v-59c57-5 96-53 96-109v-75c0-7-6-13-12-13h-36V44c0-7-5-12-12-12s-12 5-12 12v84h-68V44c0-7-5-12-12-12s-12 5-12 12v84H64c-6 0-12 6-12 13v73c0 58 40 106 96 111v59c0 51 43 92 94 92 50 0 90-41 90-92v-68c0-38 31-68 69-68h47c7 0 12-5 12-12s-5-12-12-12h-47zM76 152h168v64c0 48-36 86-84 86-49 0-84-38-84-86v-64z"/>
    </symbol>
    <symbol id="meetup" viewBox="0 0 512 512">
      <path fill="currentColor" d="M256 124a36 36 0 1 1 0-72 36 36 0 0 1 0 72zm-76 108a36 36 0 1 1 0-72 36 36 0 0 1 0 72zm152 0a36 36 0 1 1 0-72 36 36 0 0 1 0 72zm72 108a36 36 0 1 1 0-72 36 36 0 0 1 0 72zm-148 0a36 36 0 1 1 0-72 36 36 0 0 1 0 72zm-148 0a36 36 0 1 1 0-72 36 36 0 0 1 0 72z"/>
      <path d="M108 256a48 48 0 1 0 1 96 48 48 0 0 0-1-96zm100 48a48 48 0 1 0 96 1 48 48 0 0 0-96-1zm196 48a48 48 0 1 0-48-48c0 27 22 48 48 48zM228 196a48 48 0 1 0-96-1 48 48 0 0 0 96 1zm152 0a48 48 0 1 0-96-1 48 48 0 0 0 96 1zM304 88a48 48 0 1 0-96-1 48 48 0 0 0 96 1zM108 328c-14 0-24-11-24-24 0-14 11-24 24-24s24 11 24 24-11 24-24 24zm148-48c14 0 24 11 24 24 0 14-11 24-24 24a24 24 0 1 1 0-48zm148 0c14 0 24 11 24 24 0 14-11 24-24 24a24 24 0 1 1 0-48zm-248-84c0-9 5-18 14-22s20-2 26 5c8 7 10 17 6 26-3 9-12 15-22 15-13 0-24-10-24-24zm176 24c-14 0-24-11-24-24 0-14 11-24 24-24a24 24 0 1 1 0 48zm-76-108c-14 0-24-11-24-24 0-14 11-24 24-24a24 24 0 1 1 0 48zm236 292v46a12 12 0 1 1-24 0v-46c0-11-9-20-21-20h-7l-22 22c-7 7-18 7-24 0l-23-22h-7a12 12 0 1 1 0-24h12c3 0 6 1 8 3l22 21 21-21c2-2 5-3 8-3h12c25 0 45 20 45 44zm-149 0v55a12 12 0 0 1-24 0v-55c0-11-10-20-21-20h-7l-22 22c-7 7-18 7-25 0l-22-22h-7c-11 0-21 9-21 20v55a12 12 0 1 1-24 0v-55c0-24 20-44 45-44h12c3 0 6 1 8 4l22 20 21-21c2-2 5-3 8-3h12c25 0 45 20 45 44zM20 450v-46c0-24 20-44 45-44h12c3 0 6 1 8 4l21 20 22-21c2-2 5-3 8-3h12a12 12 0 0 1 0 24h-7l-23 22c-6 7-17 7-24 0l-22-22h-7c-11 0-21 9-21 20v46a12 12 0 1 1-24 0z"/>
    </symbol>
    <symbol id="newsletter" viewBox="0 0 512 512">
      <path fill="currentColor" d="M114 44h287v212L258 360 114 256z"/>
      <path d="M78 480h356c23 0 42-19 42-42V211c0-3-2-6-4-9l-59-50V66c0-19-15-34-34-34H135c-19 0-33 15-33 34v85l-62 51c-2 3-4 6-4 9v227c0 23 19 42 42 42zm356-24H78c-10 0-18-8-18-18V234l136 97-96 74c-6 4-7 11-3 17 4 5 12 6 17 2l103-79 33 24c4 3 10 3 14 0l33-24 103 79c6 4 13 3 17-2 4-6 3-13-2-17l-97-74 134-95v202c0 10-8 18-18 18zm12-244l-33 23v-51l33 28zM135 56h244c6 0 10 4 10 10v185l-132 94-132-94V66c0-6 4-10 10-10zm-33 179l-34-24 34-29v53zm154 49h3a12 12 0 1 0 0-24h-3c-42 0-76-34-76-77a76 76 0 0 1 152 0v21c0 7-6 13-13 13s-13-6-13-13v-21c0-23-16-43-39-48a49 49 0 0 0-42 87c17 15 43 15 61 1 9 14 26 22 42 17 17-4 28-19 28-36v-21a100 100 0 0 0-200 0c0 56 45 101 100 101zm0-76c-11 0-20-6-24-16-4-9-2-20 5-28 8-7 19-9 28-5a25 25 0 0 1-9 49z"/>
    </symbol>
    <symbol id="ouroboros" viewBox="0 0 512 512">
      <path d="M138 82c-11-2-14-7-7-15 20-23 49-34 64-39 14-4 36 3 39 12l2 8 20-1a218 218 0 1 1 0 437c-121 0-219-87-219-218 0-82 42-147 101-184zm14 3A202 202 0 0 0 44 266c0 108 90 195 201 195s201-87 201-195S355 85 245 70h-7c-1 6-4 13-10 17-11 8-36 7-76-2zm15-28c10 2 20 2 31 0 16-3 12-19-4-15-10 2-19 7-27 15z"/>
    </symbol>
    <symbol id="partner" viewBox="0 0 512 512">
      <path fill="currentColor" d="M64 345c-10 0-19-4-27-11-7-8-11-17-11-27s4-19 11-26l43-44c8-8 17-11 27-11s19 4 27 11c15 15 15 38 0 54l-43 43c-8 7-17 11-27 11zm52 50c-10 0-19-4-27-11a38 38 0 0 1 0-54l43-43c8-8 17-11 27-11s19 4 27 11c7 8 11 17 11 27s-4 19-11 26l-43 44c-8 7-17 11-27 11zm50 52c-10 0-19-4-27-11-7-8-11-17-11-27s4-19 11-26l43-44c8-8 17-11 27-11s19 4 27 11c15 15 15 38 0 54l-43 43c-8 7-17 11-27 11zm25 41l-1-1a38 38 0 0 1 0-54l43-43c8-8 17-11 27-11s19 4 27 11c7 8 11 17 11 27s-4 19-11 26v1l-43 43a41 41 0 0 1-53 1zm74-407l4-3c51-53 128-48 185 9 26 26 40 60 40 97 0 23-1 34-4 46-4 14-11 26-24 39l-4 5-132-132c-2-3-6-3-8 0l-73 72c-16 17-43 18-58 1-9-8-13-18-13-29 0-12 4-23 13-30a36553 36553 0 0 0 74-75z"/>
      <path d="M467 74C408 16 322 3 261 60l-4 4C196 3 102 3 41 64c-62 61-41 175-10 207-8 8-15 24-16 36 1 13 6 25 16 34a45 45 0 0 0 36 14c-2 13 3 26 14 37a47 47 0 0 0 36 15v3c0 14 4 26 14 34 10 10 22 14 34 14h2c-1 14 4 27 15 38 9 9 21 14 33 14 13 0 24-5 34-13l43-43 6-8c10 9 20 14 33 14 11 0 23-5 33-15 10-9 14-21 15-33v-4h3c13 0 25-5 34-15a46 46 0 0 0 14-37h4c12 0 24-5 33-14 10-10 15-22 15-34 0-7-3-16-5-23 45-46 49-153-10-211zM64 331c-6 0-12-2-17-7s-7-11-7-17 2-12 7-17l43-43c5-5 10-7 17-7a24 24 0 0 1 17 41l-43 43c-5 5-11 7-17 7zm52 50a24 24 0 0 1-17-41l43-43c5-5 10-7 17-7 6 0 12 2 17 7s7 11 7 17-2 12-7 17l-43 43c-5 5-11 7-17 7zm50 52c-6 0-12-2-17-7s-7-11-7-17 2-12 7-17l43-43c5-5 10-7 17-7a24 24 0 0 1 17 41l-43 43c-5 5-11 7-17 7zm68 44c-9 8-24 8-34 0-9-10-9-24 0-34l43-43c5-5 10-7 17-7 6 0 12 2 17 7s7 11 7 17-2 12-7 17l-43 43zm217-153c-10 9-25 9-34 0l-89-89a12 12 0 0 0-16 0c-5 4-5 12-1 17l89 89c5 4 8 10 8 17 0 5-3 11-8 16-9 10-25 10-33 0l-98-98a11 11 0 0 0-17 0c-4 5-4 13 1 18l97 97a24 24 0 1 1-34 34l-8-9c0-13-5-25-14-33a50 50 0 0 0-34-15h-2c1-13-4-26-15-37-9-10-21-14-33-14h-3v-4c0-13-5-25-14-34a50 50 0 0 0-36-14c1-13-4-26-15-37-9-10-21-15-33-15-14 0-24 5-34 14l-27 27C26 233 4 134 57 80s136-47 184 0l-63 63a58 58 0 0 0 0 84c12 12 28 18 42 18 15 0 32-6 42-18l64-64 125 125c5 5 7 11 7 17s-2 14-7 19zM318 137l-73 73c-14 14-37 15-50 1-7-7-11-16-11-25 0-10 4-20 11-26l78-78c51-53 125-43 177 9 25 25 38 57 38 93 0 35-1 56-26 81L334 137c-4-4-12-4-16 0z"/>
    </symbol>
    <symbol id="protect" viewBox="0 0 512 512">
      <path fill="currentColor" d="M256 21l206 64c3 250-62 378-206 405V21z"/>
      <path d="M253 9h7l208 66c5 1 8 6 8 11 6 247-67 387-217 416h-5C103 473 31 333 36 86c0-5 4-10 9-11L253 9zm3 24L60 95c-3 230 63 356 196 383 134-27 200-153 196-383L256 33z"/>
    </symbol>
    <symbol id="regulate" viewBox="0 0 512 512">
      <path fill="currentColor" d="M16 412c0-11 9-20 20-20h220v32c0 31 19 54 56 70H67c-28 0-51-23-51-51v-31zM440 28h28c18 0 32 14 32 32v30c0 10-8 18-18 18h-74V60c0-18 14-32 32-32z"/>
      <path d="M152 92h192a12 12 0 1 1 0 24H152a12 12 0 1 1 0-24zm0 72h192a12 12 0 1 1 0 24H152a12 12 0 1 1 0-24zm0 72h192a12 12 0 1 1 0 24H152a12 12 0 1 1 0-24zm0 72h192a12 12 0 1 1 0 24H152a12 12 0 1 1 0-24zm120 72h72a12 12 0 1 1 0 24h-72v-24zm-196 0V76c0-33 27-60 60-60h324c29 0 52 23 52 52v20c0 18-14 32-32 32h-60v306c0 44-36 80-80 80H67c-35 0-63-28-63-63v-31c0-18 14-32 32-32h40zM454 40c-19 0-34 15-34 34v22h56c7 0 12-5 12-12V68c0-15-13-28-28-28h-6zM28 416v27c0 22 17 39 39 39h213c-11 0-32-20-32-56v-10c0-7-5-12-12-12H40c-7 0-12 5-12 12zM408 40H136c-20 0-36 16-36 36v304h172v40a62 62 0 0 0 124 0V76c0-19 4-31 12-36z"/>
    </symbol>
    <symbol id="roadmap" viewBox="0 0 512 512">
      <circle fill="currentColor" cx="256" cy="56" r="25"/>
      <path d="M256 92a36 36 0 1 1 0-72 36 36 0 0 1 0 72zm25 341a12 12 0 0 1 17 17l-25 26-11 11c-3 3-9 3-12 0l-20-20a12 12 0 0 1 17-17l9 9 25-26zm-25-194l8-9a12 12 0 0 1 17 17l-8 9 8 8a12 12 0 0 1-17 17l-8-8-9 8a12 12 0 0 1-17-17l9-8-9-9a12 12 0 0 1 17-17l9 9zm0-197a14 14 0 1 0 0 28 14 14 0 0 0 0-28zm72 28a14 14 0 1 1 0-28 14 14 0 0 1 0 28zm52 1a14 14 0 1 1 0-28 14 14 0 0 1 0 28zm48 14a14 14 0 1 1 0-28 14 14 0 0 1 0 28zm36 35a14 14 0 1 1 0-28 14 14 0 0 1 0 28zm16 50a14 14 0 1 1 0-28 14 14 0 0 1 0 28zm-16 50a14 14 0 1 1 0-28 14 14 0 0 1 0 28zm-36 36a14 14 0 1 1 0-28 14 14 0 0 1 0 28zm-48 16a14 14 0 1 1 0-28 14 14 0 0 1 0 28zm-52 0a14 14 0 1 1 0-28 14 14 0 0 1 0 28zM186 445a14 14 0 1 1 0 28 14 14 0 0 1 0-28zm-52-1a14 14 0 1 1 0 28 14 14 0 0 1 0-28zm-48-14a14 14 0 1 1 0 28 14 14 0 0 1 0-28zm-36-35a14 14 0 1 1 0 28 14 14 0 0 1 0-28zm-16-50a14 14 0 1 1 0 28 14 14 0 0 1 0-28zm16-50a14 14 0 1 1 0 28 14 14 0 0 1 0-28zm36-36a14 14 0 1 1 0 28 14 14 0 0 1 0-28zm48-16a14 14 0 1 1 0 28 14 14 0 0 1 0-28zm52 0a14 14 0 1 1 0 28 14 14 0 0 1 0-28z"/>
    </symbol>
    <symbol id="scale" viewBox="0 0 512 512">
      <path fill="currentColor" d="M256 488a232 232 0 1 0 0-464 232 232 0 0 0 0 464zm0 24a256 256 0 1 1 0-512 256 256 0 0 1 0 512zm0-24a116 116 0 1 0 0-232 116 116 0 0 0 0 232zm1 24a140 140 0 1 1-1-280 140 140 0 0 1 1 280zm-1-24a58 58 0 1 0 0-116 58 58 0 0 0 0 116zm0 24a80 80 0 1 1 0-160 80 80 0 0 1 0 160z"/>
    </symbol>
    <symbol id="stake" viewBox="0 0 512 512">
      <path fill="currentColor" d="M166 47c37 0 71 4 97 12 23 7 36 16 36 24s-13 17-36 24c-26 8-60 12-97 12s-71-4-97-12c-23-7-36-16-36-24s13-17 36-24c26-8 60-12 97-12zm180 245c-37 0-71-4-97-12-23-7-36-16-36-24s13-17 36-24c26-8 60-12 97-12s71 4 97 12c23 7 36 16 36 24s-13 17-36 24c-26 8-60 12-97 12z"/>
      <path d="M346 203l-30 1V83c0-36-78-53-150-53S16 47 16 83v288c0 37 78 53 150 53l30-1v6c0 36 78 53 150 53 17 0 34-1 50-3 30-3 100-15 100-50V256c0-36-78-53-150-53zM71 65c26-8 59-12 95-12s69 4 95 12c27 8 32 16 32 18s-5 10-32 18c-26 8-59 12-95 12s-69-4-95-12c-27-8-32-16-32-18s5-10 32-18zm-32 48c28 16 79 23 127 23s99-7 127-23v28c0 2-5 10-32 18-26 8-59 12-95 12s-69-4-95-12c-27-8-32-16-32-18v-28zm0 58c28 16 79 23 127 23s99-7 127-23v28c0 1-2 4-9 9-25 3-47 9-63 17a337 337 0 0 1-150-8c-27-8-32-16-32-18v-28zm0 57a402 402 0 0 0 158 22l-1 6v29l-30 1c-36 0-69-4-95-12s-32-16-32-18v-28zm0 58c28 16 79 23 127 23l30-1v35l-30 1c-36 0-70-4-95-12-27-8-32-16-32-18v-28zm127 116c-36 0-70-4-95-12-27-8-32-16-32-18v-28c28 16 79 23 127 23l30-1v35l-30 1zm307 27c0 5-20 21-79 27a352 352 0 0 1-143-9c-27-8-32-16-32-18v-28c28 16 79 23 127 23s99-7 127-23v28zm0-57c0 2-5 10-32 18-25 8-59 12-95 12s-69-4-95-12c-27-8-32-16-32-18v-28c28 16 79 23 127 23s99-7 127-23v28zm0-58c0 2-5 10-32 18-25 8-59 12-95 12s-69-4-95-12c-27-8-32-16-32-18v-28c28 16 79 23 127 23s99-7 127-23v28zm-32-40c-25 8-59 12-95 12s-69-4-95-12c-27-8-32-16-32-18s5-10 32-18c26-8 59-12 95-12s70 4 95 12c27 8 32 16 32 18s-5 10-32 18z"/>
    </symbol>
    <symbol id="standardise" viewBox="0 0 512 512">
      <path d="M152 461v39c0 7-5 12-12 12H12c-7 0-12-5-12-12V344c0-7 5-12 12-12h39a52 52 0 0 0 0-104H12c-7 0-12-5-12-12V114c0-7 5-12 12-12h116V77a76 76 0 1 1 152 0v25h118c7 0 12 5 12 12v90h25c39 0 77 37 77 76s-38 76-77 76h-25v144c0 7-5 12-12 12H268c-7 0-12-5-12-12v-39a52 52 0 0 0-104 0zM24 488h104v-27a76 76 0 1 1 152 0v27h106V345c0-7 5-13 12-13h39a52 52 0 0 0 0-104h-39c-7 0-12-6-12-13v-89H268c-7 0-12-5-12-12V76c0-28-24-52-52-52s-52 24-52 52v38c0 7-6 12-13 12H24v78h28a76 76 0 1 1 0 152H24v132z"/>
    </symbol>
    <symbol id="sustain" viewBox="0 0 512 512">
      <path d="M244 178v-19a85 85 0 1 0-85 85h194a109 109 0 1 1-109 109v-30c0-7 5-12 12-12s12 5 12 12v30a85 85 0 1 0 85-85H159a109 109 0 1 1 109-109v19l19-19c5-4 13-4 18 1 4 4 4 12 0 17l-40 39c-5 5-13 5-18 0l-39-39c-5-5-5-13 0-17 4-5 12-5 17-1l19 19z"/>
    </symbol>
    <symbol id="wallet" viewBox="0 0 512 512">
      <path fill="currentColor" d="M77 75h327v66H77a33 33 0 1 1 0-66zm227 153h164v120H304c-9 0-16-7-16-16v-88c0-9 7-16 16-16z"/>
      <path d="M75 64h330c6 0 11 5 11 11v53h32c18 0 32 14 32 32v256c0 18-14 32-32 32H64c-18 0-32-14-32-32V107c0-24 19-43 43-43zm381 176H308c-4 0-8 4-8 8v80c0 4 4 8 8 8h148v-96zM56 144v268c0 7 5 12 12 12h376c7 0 12-5 12-12v-52H302c-14 0-26-12-26-27v-90c0-15 12-27 26-27h154v-52c0-7-5-12-12-12H75c-8 0-14-3-19-8zm20-56a20 20 0 1 0 0 40h316V88H76zm284 228a28 28 0 1 1 0-56 28 28 0 0 1 0 56zm0-18a10 10 0 1 0 0-20 10 10 0 0 0 0 20z"/>
    </symbol>
    <symbol id="whitepaper" viewBox="0 0 512 512">
      <path fill="currentColor" d="M309 55v124h124z"/>
      <path d="M295 36c8 0 16 3 22 9l126 126c6 6 9 14 9 22v247c0 18-14 32-32 32H100c-18 0-32-14-32-32V68c0-18 14-32 32-32h195zm121 412c7 0 12-5 12-12V192H308c-7 0-12-5-12-12V60H104c-7 0-12 5-12 12v364c0 7 5 12 12 12h312zm-12-280l-84-84v84h84z"/>
    </symbol>
  </defs>
</svg>
