<svg xmlns="http://www.w3.org/2000/svg" version="1.1" width="100%" height="100%" viewBox="0 0 512 512" enable-background="new 0 0 320 320">
  <path d="M216 221c-13 0-25-7-30-19a34 34 0 1 1 30 19m-40 70h-2a34 34 0 0 1 4-68 34 34 0 0 1-2 68m40 69a34 34 0 0 1-28-53 34 34 0 1 1 28 53m80 0a34 34 0 0 1-32-45 34 34 0 0 1 62-4 34 34 0 0 1-30 49m40-70h-2a34 34 0 1 1 2 0m-40-70c-7 0-13-2-19-6a34 34 0 1 1 19 6M181 94a17 17 0 1 1-30 16 17 17 0 0 1 30-16M78 240a17 17 0 1 1-2 34 17 17 0 0 1 2-34m75 163a17 17 0 1 1 28 18 17 17 0 0 1-28-18m178 16a17 17 0 1 1 30-16 17 17 0 0 1-30 16m102-146a17 17 0 1 1 2-34 17 17 0 0 1-2 34m-74-163a17 17 0 1 1-28-18 17 17 0 0 1 28 18M145 42a11 11 0 1 1-20 10 11 11 0 0 1 20-10M15 246a11 11 0 1 1-2 22 11 11 0 0 1 2-22m111 215a11 11 0 1 1 18 12 11 11 0 0 1-18-12m241 10a11 11 0 1 1 20-10 11 11 0 0 1-20 10m130-204c-6 0-10-6-10-12a11 11 0 1 1 10 12M386 52a11 11 0 1 1-18-12 11 11 0 0 1 18 12M148 171a20 20 0 1 1-22 34 20 20 0 1 1 22-34m-20 137a20 20 0 1 1 18 36 20 20 0 0 1-18-36m107 85a20 20 0 1 1 40 2 20 20 0 0 1-40-2m129-51a20 20 0 1 1 22-34 20 20 0 0 1-22 34m20-137a20 20 0 1 1-18-36 20 20 0 0 1 18 36m-108-86a20 20 0 1 1-40-2 20 20 0 0 1 40 2M73 135c6 5 8 13 4 20a14 14 0 1 1-4-20M60 354a14 14 0 1 1 12 25 14 14 0 0 1-12-25m181 122a14 14 0 1 1 28 2 14 14 0 0 1-28-2m198-98a14 14 0 1 1 16-24 14 14 0 0 1-16 24m13-219a14 14 0 1 1-12-26 14 14 0 0 1 12 26M270 37a14 14 0 1 1-28-2 14 14 0 0 1 28 2"/>
</svg>
