<svg version="1.1" xmlns="http://www.w3.org/2000/svg" xmlns:xlink="http://www.w3.org/1999/xlink" viewBox="0 0 768 240">
  <defs>
    <symbol id="logo" viewBox="0 0 512 512">
      <path d="M216 221c-13 0-25-7-30-19a34 34 0 1 1 30 19m-40 70h-2a34 34 0 0 1 4-68 34 34 0 0 1-2 68m40 69a34 34 0 0 1-28-53 34 34 0 1 1 28 53m80 0a34 34 0 0 1-32-45 34 34 0 0 1 62-4 34 34 0 0 1-30 49m40-70h-2a34 34 0 1 1 2 0m-40-70c-7 0-13-2-19-6a34 34 0 1 1 19 6M181 94a17 17 0 1 1-30 16 17 17 0 0 1 30-16M78 240a17 17 0 1 1-2 34 17 17 0 0 1 2-34m75 163a17 17 0 1 1 28 18 17 17 0 0 1-28-18m178 16a17 17 0 1 1 30-16 17 17 0 0 1-30 16m102-146a17 17 0 1 1 2-34 17 17 0 0 1-2 34m-74-163a17 17 0 1 1-28-18 17 17 0 0 1 28 18M145 42a11 11 0 1 1-20 10 11 11 0 0 1 20-10M15 246a11 11 0 1 1-2 22 11 11 0 0 1 2-22m111 215a11 11 0 1 1 18 12 11 11 0 0 1-18-12m241 10a11 11 0 1 1 20-10 11 11 0 0 1-20 10m130-204c-6 0-10-6-10-12a11 11 0 1 1 10 12M386 52a11 11 0 1 1-18-12 11 11 0 0 1 18 12M148 171a20 20 0 1 1-22 34 20 20 0 1 1 22-34m-20 137a20 20 0 1 1 18 36 20 20 0 0 1-18-36m107 85a20 20 0 1 1 40 2 20 20 0 0 1-40-2m129-51a20 20 0 1 1 22-34 20 20 0 0 1-22 34m20-137a20 20 0 1 1-18-36 20 20 0 0 1 18 36m-108-86a20 20 0 1 1-40-2 20 20 0 0 1 40 2M73 135c6 5 8 13 4 20a14 14 0 1 1-4-20M60 354a14 14 0 1 1 12 25 14 14 0 0 1-12-25m181 122a14 14 0 1 1 28 2 14 14 0 0 1-28-2m198-98a14 14 0 1 1 16-24 14 14 0 0 1-16 24m13-219a14 14 0 1 1-12-26 14 14 0 0 1 12 26M270 37a14 14 0 1 1-28-2 14 14 0 0 1 28 2"/>
    </symbol>
    <symbol id="text-cardano" viewBox="0 0 3680 512">
      <path fill-rule="evenodd" d="M248 0c126 0 200 69 226 168H368c-17-48-53-78-120-78-87 0-145 70-145 165 0 96 58 166 146 166 69 0 109-35 125-82h103c-27 107-102 172-228 172C104 511 2 403 2 255 2 108 104 0 248 0zm581 9l190 493H915l-41-109H677l-41 109H532L722 9h107zm-54 118l-9 27-58 154h135l-59-154-9-27zM1269 9c106 0 174 64 174 157 0 61-32 109-86 134l107 202h-111l-96-184h-43v184h-97V9h152zm0 90h-55v133h55c45 0 74-22 74-66s-29-67-74-67zm479-90c155 0 254 101 254 247 0 145-99 246-254 246h-185V9h185zm0 90h-88v313h88c97 0 154-57 154-156s-56-157-154-157zm604-90l191 493h-105l-41-109h-196l-41 109h-105L2246 9h106zm-53 118l-9 27-59 154h135l-58-154-9-27zM3056 9v493h-97l-202-298-19-32v330h-97V9h96l202 299 20 33V9h97zm369-9c149 0 255 108 255 255 0 148-106 256-255 256a247 247 0 0 1-256-256c0-147 106-255 256-255zm0 90c-94 0-155 70-155 165 0 96 61 166 155 166 93 0 154-70 154-166 0-95-61-165-154-165z"/>
    </symbol>
    <symbol id="text-foundation" viewBox="0 0 3680 352">
      <path d="M181 6v41H44v106h116v41H44v148H0V6h181zm280-6c100 0 172 74 172 174s-72 174-172 174-172-74-172-174S361 0 461 0zm0 41c-75 0-126 56-126 133s51 134 126 134 126-57 126-134S536 41 461 41zm564-35v203c0 91-48 139-131 139s-132-48-132-139V6h43v203c0 65 30 99 89 99 57 0 88-34 88-99V6h43zm415 0v336h-44l-167-241-13-20v261h-43V6h42l166 240 15 22V6h44zm272 0c104 0 170 68 170 168 0 101-66 168-170 168h-121V6h121zm0 41h-78v254h78c77 0 125-47 125-127 0-79-47-127-125-127zm418 15l-6 19-53 132h118l-53-132-6-19zm23-56l135 336h-48l-36-89h-148l-35 89h-48L2108 6h45zm451 0v41h-119v295h-44V47h-119V6h282zm163 0v336h-44V6h44zm305-6c100 0 171 74 171 174s-71 174-171 174-172-74-172-174S2972 0 3072 0zm0 41c-75 0-126 56-126 133s51 134 126 134c74 0 126-57 126-134s-52-133-126-133zm572-35v336h-44l-167-241-13-20v261h-43V6h43l166 240 14 22V6h44z"/>
    </symbol>
    <symbol id="cardano" viewBox="0 0 768 240">
      <use xlink:href="#logo" width="240" height="240"></use>
      <use xlink:href="#text-cardano" width="460" height="64" x="308" y="88"></use>
    </symbol>
    <symbol id="foundation" viewBox="0 0 768 240">
      <use xlink:href="#logo" width="240" height="240"></use>
      <use xlink:href="#text-cardano" width="460" height="64" x="308" y="56"></use>
      <use xlink:href="#text-foundation" width="460" height="44" x="308" y="144"></use>
    </symbol>
  </defs>
</svg>
