<svg xmlns="http://www.w3.org/2000/svg" width="512" height="512">
  <path fill="#80EEFF" fill-rule="evenodd" d="M105 1zm30 0zm30 1V1h1l-1 1zm30 0l-1-1a1 1 0 1 1 1 1zm30 0a1 1 0 1 1 0-2 1 1 0 0 1 0 2zm30 0a1 1 0 1 1 0-2 1 1 0 0 1 0 2zm30 0a1 1 0 1 1 0-2 1 1 0 0 1 0 2zm30 0a1 1 0 1 1 0-2 1 1 0 0 1 0 2zm30 0a1 1 0 0 1 0-2 1 1 0 1 1 0 2zm30 0V1v1zm30-1zm30 0zM75 31zm30 1v-1 1zm30 0a1 1 0 1 1 0-2 1 1 0 0 1 0 2zm30 1a2 2 0 1 1 0-3 2 2 0 0 1 0 3zm30 0a2 2 0 1 1 0-4 2 2 0 0 1 0 4zm30 1a3 3 0 1 1 0-6 3 3 0 0 1 0 6zm30 0a3 3 0 1 1 0-6 3 3 0 0 1 0 6zm30 0a3 3 0 1 1 0-6 3 3 0 0 1 0 6zm30 0a3 3 0 1 1 0-6 3 3 0 0 1 0 6zm30-1a2 2 0 1 1 0-4 2 2 0 0 1 0 4zm30 0a1 1 0 1 1 0-3 1 1 0 0 1 0 3zm30-1a1 1 0 1 1 0-2 1 1 0 0 1 0 2zm30-1zm30 0zM46 61h-1 1zm29 1v-1 1zm30 0a1 1 0 1 1 0-2 1 1 0 0 1 0 2zm30 2a2 2 0 1 1 0-5 2 2 0 0 1 0 5zm30 1a4 4 0 1 1 0-8 4 4 0 0 1 0 8zm30 1a5 5 0 1 1 0-10 5 5 0 0 1 0 10zm30 2a7 7 0 1 1 0-13 7 7 0 0 1 0 13zm30 0a7 7 0 1 1 0-14 7 7 0 0 1 0 14zm30 0a7 7 0 1 1 0-14 7 7 0 0 1 0 14zm30-1a6 6 0 1 1 0-12 6 6 0 0 1 0 12zm30-1a5 5 0 1 1 0-10 5 5 0 0 1 0 10zm30-1a4 4 0 1 1 0-8 4 4 0 0 1 0 8zm30-2a2 2 0 1 1 0-4 2 2 0 0 1 0 4zm30-1l-1-1a1 1 0 1 1 1 1zm30-1zm30 0zM15 91zm30 0zm30 1a1 1 0 1 1 0-2 1 1 0 0 1 0 2zm30 2a3 3 0 1 1 0-6 3 3 0 0 1 0 6zm30 2a5 5 0 1 1 0-10 5 5 0 0 1 0 10zm30 2a7 7 0 1 1 0-14 7 7 0 0 1 0 14zm30 2a9 9 0 1 1 0-18 9 9 0 0 1 0 18zm30 2a11 11 0 1 1 0-22 11 11 0 0 1 0 22zm30 1a12 12 0 1 1 0-24 12 12 0 0 1 0 24zm30 0a12 12 0 1 1 0-24 12 12 0 0 1 0 24zm30-1a11 11 0 1 1 0-22 11 11 0 0 1 0 22zm30-2a9 9 0 1 1 0-18 9 9 0 0 1 0 18zm30-2a7 7 0 1 1 0-14 7 7 0 0 1 0 14zm30-3a4 4 0 1 1 0-8 4 4 0 0 1 0 8zm30-2a2 2 0 1 1 0-4 2 2 0 0 1 0 4zm30-1a1 1 0 1 1 0-2 1 1 0 0 1 0 2zm30-1h-1 1zM15 121h1-1zm30 1a1 1 0 0 1 0-2 1 1 0 1 1 0 2zm30 1a2 2 0 1 1 0-5 2 2 0 0 1 0 5zm30 3a5 5 0 1 1 0-10 5 5 0 0 1 0 10zm30 3a8 8 0 1 1 0-16 8 8 0 0 1 0 16zm30 3a11 11 0 1 1 0-22 11 11 0 0 1 0 22zm210 0a11 11 0 1 1 0-22 11 11 0 0 1 0 22zm30-4a7 7 0 1 1 0-14 7 7 0 0 1 0 14zm30-3a4 4 0 1 1 0-8 4 4 0 0 1 0 8zm30-2a2 2 0 1 1 0-4 2 2 0 0 1 0 4zm30-1a1 1 0 1 1 0-2 1 1 0 0 1 0 2zM15 151zm30 2a2 2 0 1 1 0-4 2 2 0 0 1 0 4zm30 2a4 4 0 1 1 0-8 4 4 0 0 1 0 8zm30 3a7 7 0 1 1 0-14 7 7 0 0 1 0 14zm30 4a11 11 0 1 1 0-22 11 11 0 0 1 0 22zm270-1a10 10 0 1 1 0-20 10 10 0 0 1 0 20zm30-4a6 6 0 1 1 0-13 6 6 0 0 1 0 13zm30-3a3 3 0 1 1 0-6 3 3 0 0 1 0 6zm30-2a1 1 0 1 1 0-2 1 1 0 0 1 0 2zM15 182a1 1 0 1 1 0-2 1 1 0 0 1 0 2zm30 1a2 2 0 1 1 0-4 2 2 0 0 1 0 4zm30 3a5 5 0 1 1 0-10 5 5 0 0 1 0 10zm30 4a9 9 0 1 1 0-18 9 9 0 0 1 0 18zm300 4a13 13 0 1 1 0-26 13 13 0 0 1 0 26zm30-4a9 9 0 1 1 0-18 9 9 0 0 1 0 18zm30-4a5 5 0 1 1 0-10 5 5 0 0 1 0 10zm30-3a2 2 0 1 1 0-4 2 2 0 0 1 0 4zM15 212a1 1 0 1 1 0-2 1 1 0 0 1 0 2zm30 2a3 3 0 1 1 0-6 3 3 0 0 1 0 6zm30 3a7 7 0 1 1 0-13 7 7 0 0 1 0 13zm30 5a11 11 0 1 1 0-22 11 11 0 0 1 0 22zm330-1a10 10 0 1 1 0-20 10 10 0 0 1 0 20zm30-4a6 6 0 1 1 0-12 6 6 0 0 1 0 12zm30-4a2 2 0 1 1 0-5 2 2 0 0 1 0 5zM15 240a1 1 0 1 1 0 2 1 1 0 0 1 0-2zm30-3a3 3 0 1 1 0 7 3 3 0 0 1 0-7zm30-3a7 7 0 1 1 0 14 7 7 0 0 1 0-14zm30-5a12 12 0 1 1 0 24 12 12 0 0 1 0-24zm330 1a11 11 0 1 1 0 22 11 11 0 0 1 0-22zm30 4a6 6 0 1 1 0 13 6 6 0 0 1 0-13zm30 4a3 3 0 1 1 0 6 3 3 0 0 1 0-6zM15 270a1 1 0 1 1 0 2 1 1 0 0 1 0-2zm30-2a3 3 0 1 1 0 6 3 3 0 0 1 0-6zm30-4a7 7 0 1 1 0 14 7 7 0 0 1 0-14zm30-5a12 12 0 1 1 0 23 12 12 0 0 1 0-23zm330 1a11 11 0 1 1 0 22 11 11 0 0 1 0-22zm30 4a6 6 0 1 1 0 13 6 6 0 0 1 0-13zm30 4a3 3 0 1 1 0 6 3 3 0 0 1 0-6zM15 300a1 1 0 1 1 0 2 1 1 0 0 1 0-2zm30-2a3 3 0 1 1 0 6 3 3 0 0 1 0-6zm30-4a6 6 0 1 1 0 13 6 6 0 0 1 0-13zm30-4a11 11 0 1 1 0 21 11 11 0 0 1 0-21zm330 1a10 10 0 1 1 0 20 10 10 0 0 1 0-20zm30 4a6 6 0 1 1 0 11 6 6 0 0 1 0-11zm30 3a2 2 0 1 1 0 5 2 2 0 0 1 0-5zM15 330l1 1a1 1 0 0 1-1 0v-1zm30-2a2 2 0 1 1 0 5 2 2 0 0 1 0-5zm30-2a5 5 0 1 1 0 10 5 5 0 0 1 0-10zm30-4a9 9 0 1 1 0 18 9 9 0 0 1 0-18zm300-4a13 13 0 1 1 0 25 13 13 0 0 1 0-25zm30 4a8 8 0 1 1 0 17 8 8 0 0 1 0-17zm30 4a5 5 0 1 1 0 9 5 5 0 0 1 0-9zm30 3a2 2 0 1 1 0 4 2 2 0 0 1 0-4zM15 360zm30-1a1 1 0 1 1 0 3 1 1 0 0 1 0-3zm30-2a4 4 0 1 1 0 7 4 4 0 0 1 0-7zm30-3a7 7 0 1 1 0 13 7 7 0 0 1 0-13zm30-4a11 11 0 1 1 0 21 11 11 0 0 1 0-21zm240-3a13 13 0 1 1 0 27 13 13 0 0 1 0-27zm30 4a10 10 0 1 1 0 20 10 10 0 0 1 0-20zm30 4a6 6 0 1 1 0 12 6 6 0 0 1 0-12zm30 2a3 3 0 1 1 0 7 3 3 0 0 1 0-7zm30 2a1 1 0 1 1 0 3 1 1 0 0 1 0-3zM15 390l1 1h-1v-1zm30 0l1 1a1 1 0 1 1-1-1zm30-2a2 2 0 1 1 0 5 2 2 0 0 1 0-5zm30-2a4 4 0 1 1 0 9 4 4 0 0 1 0-9zm30-3a7 7 0 1 1 0 15 7 7 0 0 1 0-15zm30-3a10 10 0 1 1 0 21 10 10 0 0 1 0-21zm30-2a13 13 0 1 1 0 26 13 13 0 0 1 0-26zm150 0a13 13 0 1 1 0 25 13 13 0 0 1 0-25zm30 3a10 10 0 1 1 0 19 10 10 0 0 1 0-19zm30 3a7 7 0 1 1 0 14 7 7 0 0 1 0-14zm30 3a4 4 0 1 1 0 8 4 4 0 0 1 0-8zm30 2a2 2 0 1 1 0 4 2 2 0 0 1 0-4zm30 1v1a1 1 0 1 1 0-1zM15 421v-1 1zm30-1l1 1h-1v-1zm30-1a1 1 0 1 1 0 3 1 1 0 0 1 0-3zm30-1a2 2 0 1 1 0 5 2 2 0 0 1 0-5zm30-2a4 4 0 1 1 0 9 4 4 0 0 1 0-9zm30-2a6 6 0 1 1 0 13 6 6 0 0 1 0-13zm30-2a9 9 0 1 1 0 17 9 9 0 0 1 0-17zm30-2a10 10 0 1 1 0 21 10 10 0 0 1 0-21zm30 0a11 11 0 1 1 0 21 11 11 0 0 1 0-21zm30 0a11 11 0 1 1 0 21 11 11 0 0 1 0-21zm30 1a10 10 0 1 1 0 19 10 10 0 0 1 0-19zm30 1a8 8 0 1 1 0 17 8 8 0 0 1 0-17zm30 2a6 6 0 1 1 0 13 6 6 0 0 1 0-13zm30 3a4 4 0 1 1 0 8 4 4 0 0 1 0-8zm30 1a2 2 0 1 1 0 5 2 2 0 0 1 0-5zm30 2l1 1a1 1 0 0 1-2 0l1-1zm30 0v1h-1l1-1zM45 451v-1 1zm30-1zm30-1a1 1 0 1 1 0 3 1 1 0 0 1 0-3zm30-1a2 2 0 1 1 0 5 2 2 0 0 1 0-5zm30-1a3 3 0 1 1 0 7 3 3 0 0 1 0-7zm30-1a5 5 0 1 1 0 9 5 5 0 0 1 0-9zm30-1a6 6 0 1 1 0 11 6 6 0 0 1 0-11zm30-1a6 6 0 1 1 0 13 6 6 0 0 1 0-13zm30 0a6 6 0 1 1 0 13 6 6 0 0 1 0-13zm30 1a6 6 0 1 1 0 11 6 6 0 0 1 0-11zm30 1a5 5 0 1 1 0 9 5 5 0 0 1 0-9zm30 1a3 3 0 1 1 0 7 3 3 0 0 1 0-7zm30 2a2 2 0 1 1 0 3 2 2 0 0 1 0-3zm30 1a1 1 0 1 1 0 1 1 1 0 0 1 0-1zm30 0v1h-1l1-1zm30 1v-1 1zM75 480v1-1zm30 0h1l-1 1v-1zm30 0a1 1 0 1 1 0 1 1 1 0 1 1 0-1zm30-1a1 1 0 1 1 0 3 1 1 0 0 1 0-3zm30-1a2 2 0 1 1 0 4 2 2 0 0 1 0-4zm30 0a2 2 0 1 1 0 5 2 2 0 0 1 0-5zm30 0a3 3 0 1 1 0 5 3 3 0 0 1 0-5zm30 0a3 3 0 1 1 0 5 3 3 0 0 1 0-5zm30 0a2 2 0 1 1 0 5 2 2 0 0 1 0-5zm30 1a2 2 0 1 1 0 3 2 2 0 0 1 0-3zm30 0a1 1 0 1 1 0 3 1 1 0 0 1 0-3zm30 1a1 1 0 1 1 0 1 1 1 0 0 1 0-1zm30 0v1-1zm30 0v1-1zm-330 30zm31 0h-1 1zm30 0h-1a1 1 0 0 1 1 0zm30 0h-2 2zm30 0h-2a1 1 0 0 1 2 0zm30 0h-2a1 1 0 0 1 2 0zm30 0h-2 2zm29 0h-1a1 1 0 0 1 1 0zm30 0zm30 0zm15-269c0 7-5 13-11 15a15 15 0 1 1-17 23l-7 7c3 2 5 5 7 9a14 14 0 1 1 0 12c-2 4-5 8-9 10a16 16 0 1 1-22 23c-1 3-4 5-7 7a16 16 0 1 1-23 22c-2 4-6 7-10 8a14 14 0 1 1-12 0l-9-6c-1 3-4 5-7 6a15 15 0 1 1-23 18 16 16 0 0 1-30-2 15 15 0 1 1-21-16c-4-1-8-4-10-8a17 17 0 0 1-30-6 14 14 0 1 1-17-16c-7-1-13-7-13-15a13 13 0 1 1 0-2c0-6 3-11 7-13-3-2-6-5-8-9a15 15 0 1 1-17-22 16 16 0 0 1-2-30 16 16 0 0 1 1-31 15 15 0 1 1 19-22c1-3 4-6 7-8-4-2-7-6-8-11a14 14 0 1 1 0-6c2-7 6-12 13-13a14 14 0 1 1 18-19c1-6 6-10 13-12a14 14 0 1 1 7 0c4 1 8 4 10 8 2-4 5-6 8-8a15 15 0 1 1 23-18 16 16 0 0 1 30-1 16 16 0 0 1 30 2 15 15 0 1 1 22 17c4 2 7 5 9 8 3-4 7-7 13-8a13 13 0 1 1 2 0c8 1 14 7 15 14a14 14 0 1 1 16 17 17 17 0 0 1 6 30c4 2 7 5 9 9a15 15 0 1 1 15 21c7 1 13 8 13 16zm-28 22c2-4 5-6 9-7-4-1-7-4-9-7l-6 7 6 7zm-35 53l4 6 6-5-6-5-4 4zm-26 37c1-3 3-4 5-6l-5-4-5 4c2 2 4 3 5 6zm-61 34c1-4 4-8 7-10l-7-5-7 5c4 2 6 6 7 10zm-30 2c0-5 3-9 7-12-3-1-6-3-7-6-2 3-5 5-9 6 5 3 8 7 9 12zm-31-37l5-5-5-4-4 4 4 5zm-30 6c1-4 3-8 7-11-3-2-6-4-7-7-3 4-6 6-11 7 6 1 10 6 11 11zm-31-65l6-7-5-6-9 6c3 1 7 4 8 7zm1-74c-2 3-5 5-9 6 4 1 7 4 9 7l5-7-5-6zm30-63c-2 4-5 7-9 9 3 1 7 3 9 6 1-3 4-5 6-6l-6-9zm61-30l-7 8 7 6 6-6c-3-2-5-5-6-8zm30 1c-1 3-3 6-6 7l6 5 6-5c-3-1-5-4-6-7zm30-2c-1 4-3 7-6 9l6 6 8-6c-4-2-6-5-8-9zm31 35l-4 5 4 3 4-3-4-5zm30-6c0 4-3 8-6 11l6 6c3-3 7-6 11-6-5-1-9-6-11-11zm0 104l3-2-3-3-2 3 2 2zm-153 58l1 2 2-2-1-1-2 1zm-29-93l-3 2 3 3 2-2-2-3zm154-28l-2-2-2 2 1 2 3-2zm-64 121l1 1 1-1-1-1-1 1zm-30 0l1 1 1-1-1-1-1 1zm-30-30l1 1 1-1-1-1-1 1zm32-90l-1-1h-1l1 1h1zm30 0l-1-1-1 1h2zm30-1h-1l-1 1h1l1-1zm30 31l-1-1v2l1-1zm-61 60zm-30 0zm-31-30h1v-1l-1 1zm31-30v-1 1zm30 0zm30 0v-1 1zm-60 30zm60 0zm-90-31l-1 1h1v-1zm90 61zm30-29l1-1-1-1v2zm-121-63l-1 1 2 2 1-2-2-1zm-30 60l-2 2 2 2 2-2-2-2zm-3 32l3 3 3-3-3-2-3 2zm124 31l1-1-1-1-1 1 1 1zm30-30l2-1-2-1-1 1 1 1zm31-59l3-3-3-3-3 4 3 2zm0-38l-4 5 4 4 5-4-5-5zm-61-28l-2 3 2 2 3-2-3-3zm-30 1l-2 2 2 2 2-2-2-2zm-30-1l-3 3 3 2 2-2-2-3zm-31-2l-4 5 4 3 4-3-4-5zm-30 31l-4 4 4 4 3-4-3-4zm-30 71c1-3 2-5 5-6l-5-6c-2 3-5 5-8 6 3 1 6 3 8 6zm30 59l4-5-4-3-5 4 5 4zm61 29l3-3-3-3-3 3 3 3zm30 0l3-3-3-3-3 3 3 3zm30 0l4-3-4-3-3 3 3 3zm31-31l2-3-3-2-1 2 2 3zm30-30l4-3-4-3-3 3 3 3zm31-72c-2 4-4 6-7 8l7 8c2-4 6-7 11-8-5 0-9-3-11-8z"/>
</svg>
