<svg version="1.1" xmlns="http://www.w3.org/2000/svg">
  <defs>
    <symbol id="chat" viewBox="0 0 240 240">
      <path d="M240 120c0-12-4-24-11-34-6-10-15-19-26-26-22-14-51-21-81-21l-29 2c-6-5-13-10-21-14C33 7 0 26 0 26s30 25 26 47a67 67 0 0 0-22 47c0 17 8 33 22 47 4 22-26 47-26 47s33 19 72-1c8-4 15-9 21-14l29 2c30 0 59-7 81-21 11-7 20-16 26-26 7-10 11-22 11-34zM122 56c56 0 101 29 101 64 0 36-45 65-101 65-12 0-24-2-35-4-11 13-36 32-60 26 8-8 19-23 17-46-14-11-23-25-23-41 0-35 45-64 101-64m1 80c7 0 13-6 13-13 0-8-6-14-13-14-8 0-14 6-14 14 0 7 6 13 14 13zm46 0c7 0 13-6 13-13 0-8-6-14-13-14-8 0-14 6-14 14 0 7 6 13 14 13zm-93 0c7 0 13-6 13-13 0-8-6-14-13-14-8 0-14 6-14 14 0 7 6 13 14 13z"/>
    </symbol>
    <symbol id="facebook" viewBox="0 0 240 240">
      <path d="M31 20c-6 0-11 5-11 11v178c0 6 5 11 11 11h96v-77h-26v-31h26V90c0-26 16-40 39-40l23 1v27h-16c-13 0-15 6-15 15v19h30l-4 31h-26v77h51c6 0 11-5 11-11V31c0-6-5-11-11-11H31z"/>
    </symbol>
    <symbol id="forum" viewBox="0 0 240 240">
      <path d="M105 179l-61 61v-67A73 73 0 0 1 73 33h94a73 73 0 1 1 0 146h-62zm-44-56a17 17 0 1 0 0-34 17 17 0 0 0 0 34zm59 0a17 17 0 1 0 0-34 17 17 0 0 0 0 34zm59 0a17 17 0 1 0 0-34 17 17 0 0 0 0 34z"/>
    </symbol>
    <symbol id="linkedin" viewBox="0 0 240 240">
      <path d="M190 190h-29v-46c0-11 0-25-16-25-15 0-17 12-17 24v47H98V95h28v13h1c4-7 13-15 28-15 30 0 35 19 35 45v52zM64 82a17 17 0 1 1 0-34 17 17 0 0 1 0 34zm15 108H50V95h29v95zM205 20H35c-8 0-15 6-15 14v172c0 8 7 14 15 14h170c8 0 15-6 15-14V34c0-8-7-14-15-14z"/>
    </symbol>
    <symbol id="reddit" viewBox="0 0 240 240">
      <path d="M119 220c-59 0-107-32-107-71l1-8a27 27 0 0 1 14-50c7 0 13 2 18 7 19-12 43-20 71-20l18-55 4 1 42 10c4-8 11-14 21-14 12 0 22 10 22 22 0 13-10 22-22 22-13 0-23-10-23-22l-38-9-14 45c26 1 50 8 68 20 5-5 11-7 18-7 15 0 27 12 27 27 0 10-5 19-14 23l1 8c0 39-48 71-107 71zm1-25h-1c18 0 31-4 39-12v-7h-6c-7 7-17 10-32 10-16 0-26-3-32-10h-7v7c8 8 21 12 39 12zm-36-76c-9 0-17 8-17 17s8 16 17 16 16-7 16-16-7-17-16-17zm72 0c-9 0-17 8-17 17s8 16 17 16 16-7 16-16-7-17-16-17zm45-90c-8 0-14 6-14 13 0 8 6 14 14 14 7 0 13-6 13-13 0-8-6-14-14-14h1z"/>
    </symbol>
    <symbol id="twitter" viewBox="0 0 240 240">
      <path d="M240 45c-9 4-19 7-29 8 10-6 18-16 22-27-10 5-20 9-31 12-9-10-22-16-36-16-27 0-49 22-49 49l1 11C77 80 41 61 16 31c-4 7-6 16-6 25 0 17 8 32 22 41-8 0-16-3-23-6 0 24 17 44 40 49a64 64 0 0 1-22 0c6 20 24 34 46 35-17 13-38 21-61 21l-12-1A141 141 0 0 0 216 77l-1-6c10-7 18-16 25-26z"/>
    </symbol>
    <symbol id="youtube" viewBox="0 0 240 240">
      <path d="M235 62c-3-10-11-18-21-21-19-5-94-5-94-5s-75 0-94 5C16 44 8 52 5 62a341 341 0 0 0 0 117c3 10 11 18 21 21 19 5 94 5 94 5s75 0 94-5c10-3 18-11 21-21a320 320 0 0 0 0-117zM96 157V84l63 37-63 36z"/>
    </symbol>
  </defs>
</svg>
