<svg id="Layer_1" xmlns="http://www.w3.org/2000/svg" viewBox="1246 190 214 122"><style>.st0{fill:#fff}.st1{fill:none;stroke:#000;stroke-miterlimit:10}</style><g id="circle"><path class="st0" d="M1401 297.9c-26.4 0-47.9-21.5-47.9-47.9s21.5-47.9 47.9-47.9 47.9 21.5 47.9 47.9-21.6 47.9-47.9 47.9z"/><path d="M1401 202.6c26.1 0 47.4 21.3 47.4 47.4s-21.3 47.4-47.4 47.4-47.4-21.3-47.4-47.4 21.2-47.4 47.4-47.4m0-.9c-26.7 0-48.3 21.6-48.3 48.3s21.6 48.3 48.3 48.3 48.3-21.6 48.3-48.3-21.7-48.3-48.3-48.3z"/></g><g id="arrow"><path class="st1" d="M1264.4 250h136.4"/><path d="M1399.4 255l8.6-5-8.6-5z"/></g></svg>