<svg xmlns="http://www.w3.org/2000/svg" viewBox="0 0 500 500"><style>.st0{fill:#fff}</style><path class="st0" d="M148.2 35.9c2.5 5.4.5 12-4.5 14.7-5 2.7-11.1.6-13.7-4.9-2.5-5.4-.5-12 4.5-14.7 5.1-2.6 11.2-.5 13.7 4.9" id="C12"/><path class="st0" d="M82.4 128.7c6 4.2 7.7 12.9 3.7 19.3-3.9 6.4-12 8.3-18 4-6-4.2-7.7-12.9-3.7-19.3 3.9-6.4 12-8.2 18-4" id="C11"/><path class="st0" d="M28.3 239.1c5.6.3 9.9 5.5 9.6 11.6-.3 6.1-5.1 10.7-10.7 10.3-5.6-.3-9.9-5.5-9.6-11.6.2-6 5.1-10.6 10.7-10.3" id="C10"/><path class="st0" d="M69.9 347c6.4-3.5 14.2-.7 17.4 6.2 3.2 6.9.7 15.3-5.7 18.8s-14.2.7-17.4-6.2c-3.3-6.9-.7-15.3 5.7-18.8" id="C9"/><path class="st0" d="M131.5 452.7c3.1-5.1 9.4-6.5 14.1-3.2 4.7 3.3 6 10.1 2.9 15.2s-9.4 6.5-14.1 3.2c-4.7-3.4-6-10.1-2.9-15.2" id="C8"/><path class="st0" d="M237.6 467.8c.4-7.7 6.5-13.6 13.7-13.2 7.1.4 12.6 7 12.2 14.7-.4 7.7-6.5 13.6-13.7 13.2-7.1-.4-12.6-7-12.2-14.7" id="C7"/><path class="st0" d="M354.6 463.1c-2.5-5.4-.5-12 4.5-14.7 5-2.7 11.2-.6 13.7 4.9 2.5 5.4.5 12-4.5 14.7-5 2.7-11.1.5-13.7-4.9" id="C6"/><path class="st0" d="M420.5 370.3c-6-4.2-7.7-12.9-3.7-19.3 3.9-6.4 12-8.3 17.9-4 6 4.2 7.6 12.9 3.7 19.3-3.9 6.4-11.9 8.3-17.9 4" id="C5"/><path class="st0" d="M474.6 260c-5.6-.4-9.9-5.5-9.6-11.6.3-6.1 5.1-10.7 10.8-10.3 5.6.3 9.9 5.5 9.6 11.6-.4 6-5.2 10.6-10.8 10.3" id="C4"/><path class="st0" d="M433 152.1c-6.4 3.5-14.2.7-17.4-6.2-3.2-6.9-.7-15.3 5.7-18.8s14.2-.7 17.4 6.2c3.3 6.9.7 15.3-5.7 18.8" id="C3"/><path class="st0" d="M371.4 46.4c-3.1 5.1-9.4 6.5-14.1 3.2-4.7-3.3-6-10.1-2.9-15.2s9.4-6.5 14.1-3.1c4.7 3.2 6 10 2.9 15.1" id="C2"/><path class="st0" d="M263.9 31.3c-.4 7.7-6.5 13.6-13.7 13.2-7.1-.4-12.6-7-12.2-14.7.4-7.7 6.5-13.6 13.7-13.2 7.2.3 12.6 7 12.2 14.7" id="C1"/><path class="st0" d="M182.7 88c3.9 8.4.8 18.6-7 22.8-7.8 4.2-17.2.9-21.1-7.5-3.9-8.4-.8-18.6 7-22.8 7.7-4.2 17.1-.9 21.1 7.5" id="B12"/><path class="st0" d="M151.3 164.6c8.6 6 11 18.4 5.3 27.6-5.6 9.2-17.1 11.8-25.6 5.7-8.6-6-10.9-18.4-5.3-27.6 5.6-9.2 17.1-11.8 25.6-5.7" id="B11"/><path class="st0" d="M87.3 233c8.7.5 15.3 8.5 14.8 17.9-.5 9.4-7.9 16.5-16.6 16-8.7-.6-15.3-8.6-14.8-17.9.5-9.4 7.9-16.6 16.6-16" id="B10"/><path class="st0" d="M133.1 300.5c9.1-5 20.3-1 24.9 8.8 4.6 9.8.9 21.8-8.2 26.8-9.1 4.9-20.3 1-24.9-8.9-4.6-9.7-.9-21.7 8.2-26.7" id="B9"/><path class="st0" d="M156.1 394.5c4.8-7.8 14.5-10 21.8-4.9 7.3 5.1 9.3 15.6 4.5 23.5-4.8 7.8-14.5 10-21.8 4.9-7.3-5.2-9.3-15.7-4.5-23.5" id="B8"/><path class="st0" d="M231.9 385.5c.6-11 9.4-19.4 19.5-18.8 10.2.6 18 10.1 17.4 21.1-.6 11-9.3 19.4-19.5 18.8-10.2-.7-18-10.1-17.4-21.1" id="B7"/><path class="st0" d="M320.2 411.1c-3.9-8.4-.8-18.6 7-22.8 7.8-4.2 17.2-.9 21.2 7.5 3.9 8.4.8 18.6-7 22.8-7.8 4.2-17.3.8-21.2-7.5" id="B6"/><path class="st0" d="M351.6 334.5c-8.5-6.1-10.9-18.4-5.3-27.7 5.6-9.2 17.1-11.8 25.6-5.7 8.6 6 10.9 18.4 5.3 27.6-5.6 9.3-17.1 11.9-25.6 5.8" id="B5"/><path class="st0" d="M415.6 266.1c-8.7-.5-15.3-8.6-14.8-17.9.5-9.4 7.9-16.5 16.6-16 8.7.5 15.3 8.5 14.9 17.9-.6 9.4-8 16.5-16.7 16" id="B4"/><path class="st0" d="M369.8 198.5c-9.1 5-20.3 1-24.9-8.8-4.6-9.9-1-21.9 8.2-26.8 9.1-5 20.3-1 24.9 8.8 4.6 9.9.9 21.9-8.2 26.8" id="B3"/><path class="st0" d="M346.8 104.5c-4.7 7.8-14.5 10-21.8 4.9-7.3-5.1-9.3-15.7-4.5-23.5 4.8-7.8 14.5-10 21.8-4.9 7.2 5.2 9.3 15.7 4.5 23.5" id="B2"/><path class="st0" d="M269.7 113.5c-.6 11-9.3 19.4-19.6 18.8-10.2-.6-18-10-17.4-21.1.6-11 9.3-19.4 19.5-18.8 10.2.7 18 10.1 17.5 21.1" id="B1"/><path class="st0" d="M214.2 214.2c-12 0-22.8-7.2-28.1-18.7-7.8-16.7-1.6-37.2 14-45.6 4.4-2.4 9.3-3.6 14.1-3.6 12 0 22.8 7.2 28.2 18.7 7.8 16.7 1.5 37.2-13.9 45.6-4.5 2.4-9.5 3.6-14.3 3.6" id="A6"/><path class="st0" d="M177.2 283.7h-1.8c-17.3-1.1-30.6-17.1-29.7-35.8 1-18.6 15.8-33.1 33.3-32 17.3 1 30.6 17.1 29.7 35.8-1 17.9-14.8 32-31.5 32" id="A5"/><path class="st0" d="M214.4 352.9c-6.1 0-12.1-1.9-17.3-5.6-7-5-11.9-12.6-13.6-21.5-1.7-8.9-.1-18 4.5-25.5 5.9-9.6 15.7-15.3 26.4-15.3 6.1 0 12.1 1.9 17.2 5.6 7 5 11.9 12.6 13.6 21.5 1.7 8.9.1 17.9-4.5 25.5-5.7 9.6-15.6 15.3-26.3 15.3" id="A4"/><path class="st0" d="M288.7 352.7c-12 0-22.8-7.2-28.1-18.7-3.8-8.1-4.4-17.3-1.8-25.9 2.6-8.6 8.2-15.6 15.7-19.7 4.4-2.4 9.3-3.6 14.2-3.6 12 0 22.8 7.2 28.2 18.7 7.8 16.7 1.5 37.2-14 45.6-4.4 2.4-9.3 3.6-14.2 3.6" id="A3"/><path class="st0" d="M325.7 283.3c-.6 0-1.2 0-1.8-.1-17.4-1-30.7-17.1-29.7-35.8 1-18.7 15.8-33.1 33.3-32 8.4.5 16.1 4.5 21.7 11.3 5.6 6.8 8.4 15.5 7.9 24.6-.9 18-14.7 32-31.4 32" id="A2"/><path class="st0" d="M288.4 214.1c-6.1 0-12.1-1.9-17.3-5.6-14.5-10.3-18.6-31.4-9.1-47 5.8-9.6 15.7-15.3 26.4-15.3 6.1 0 12.1 1.9 17.3 5.6 14.5 10.3 18.6 31.4 9.1 47-5.9 9.5-15.7 15.3-26.4 15.3" id="A1"/></svg>