<svg xmlns="http://www.w3.org/2000/svg" viewBox="0 0 631.77 203.76"><defs><style>.cls-1{fill:#fff}.cls-2{isolation:isolate}</style></defs><title>cardano_foundation</title><g id="Layer_2" data-name="Layer 2"><g id="Layer_1-2" data-name="Layer 1"><g id="cardano"><path class="cls-1" d="M94.3 86.46a15.07 15.07 0 0 1-13.5-8.16 14.76 14.76 0 0 1 6.7-19.96 15.5 15.5 0 0 1 6.78-1.58 15.08 15.08 0 0 1 13.5 8.16 14.75 14.75 0 0 1-6.69 19.95 15.49 15.49 0 0 1-6.8 1.59m-17.71 30.35h-.88a15.18 15.18 0 1 1 .88 0m17.84 30.27a15.25 15.25 0 0 1-8.27-2.43 14.74 14.74 0 0 1-6.51-9.39 14.56 14.56 0 0 1 2.15-11.17 15.27 15.27 0 0 1 20.92-4.27 14.74 14.74 0 0 1 6.51 9.4 14.48 14.48 0 0 1-2.15 11.16 15.13 15.13 0 0 1-12.65 6.71M130 147a15.05 15.05 0 0 1-13.49-8.16 14.53 14.53 0 0 1-.87-11.33 14.88 14.88 0 0 1 7.55-8.61 15.28 15.28 0 0 1 6.81-1.6 15.07 15.07 0 0 1 13.5 8.17 14.75 14.75 0 0 1-6.7 19.94A15.32 15.32 0 0 1 130 147m17.74-30.34h-.87A14.85 14.85 0 1 1 159 91.91a14.55 14.55 0 0 1 3.81 10.74 15 15 0 0 1-15.07 14m-17.85-30.26a15.18 15.18 0 0 1-8.28-2.44 14.71 14.71 0 0 1-4.34-20.56 15.12 15.12 0 0 1 12.63-6.71 15.31 15.31 0 0 1 8.28 2.43 14.71 14.71 0 0 1 4.35 20.56 15.18 15.18 0 0 1-12.64 6.71m-50.7-55.12a7.35 7.35 0 0 1-3.34 10 7.61 7.61 0 0 1-10.14-3.28 7.37 7.37 0 0 1 3.35-10 7.62 7.62 0 0 1 10.13 3.29M33.46 94.64a7.42 7.42 0 1 1-8 7 7.46 7.46 0 0 1 8-7m33 70.62a7.61 7.61 0 0 1 10.44-2.13 7.34 7.34 0 0 1 2.18 10.27 7.63 7.63 0 0 1-10.45 2.14 7.33 7.33 0 0 1-2.17-10.27m78.7 7.23a7.36 7.36 0 0 1 3.34-10 7.62 7.62 0 0 1 10.15 3.28 7.36 7.36 0 0 1-3.35 10 7.59 7.59 0 0 1-10.13-3.28m45.72-63.38a7.42 7.42 0 1 1 8-7 7.46 7.46 0 0 1-8 7m-33-70.63a7.62 7.62 0 0 1-10.45 2.14 7.34 7.34 0 0 1-2.17-10.27 7.63 7.63 0 0 1 10.45-2.14 7.33 7.33 0 0 1 2.17 10.27m-95.2-30A4.77 4.77 0 0 1 60.52 15 4.91 4.91 0 0 1 54 12.83a4.76 4.76 0 0 1 2.16-6.44 4.93 4.93 0 0 1 6.56 2.12M5.16 97.32a4.8 4.8 0 1 1-.55 9.58 4.8 4.8 0 1 1 .55-9.58m49.49 93.37a4.93 4.93 0 0 1 6.76-1.38 4.73 4.73 0 0 1 1.4 6.69 4.93 4.93 0 0 1-6.75 1.38 4.76 4.76 0 0 1-1.4-6.65m107 4.56a4.77 4.77 0 0 1 2.16-6.45 4.93 4.93 0 0 1 6.56 2.12 4.76 4.76 0 0 1-2.16 6.45 4.93 4.93 0 0 1-6.56-2.12m57.52-88.81a4.8 4.8 0 1 1 5.15-4.52 4.85 4.85 0 0 1-5.15 4.52m-49.49-93.41a4.94 4.94 0 0 1-6.77 1.39 4.75 4.75 0 0 1-1.4-6.65 4.93 4.93 0 0 1 6.76-1.38 4.75 4.75 0 0 1 1.41 6.64M64.15 64.73a8.62 8.62 0 0 1 2.56 12.08 9 9 0 0 1-12.29 2.51 8.63 8.63 0 0 1-2.56-12.08 9 9 0 0 1 12.29-2.5m-8.72 59.45A8.94 8.94 0 0 1 67.35 128a8.67 8.67 0 0 1-3.94 11.73 9 9 0 0 1-11.92-3.87 8.65 8.65 0 0 1 3.93-11.71m47.37 37.14a8.88 8.88 0 1 1 8.36 9.21 8.84 8.84 0 0 1-8.36-9.21M160.17 139a8.65 8.65 0 0 1-2.56-12.09 9 9 0 0 1 12.29-2.5 8.63 8.63 0 0 1 2.56 12.08 9 9 0 0 1-12.29 2.51m8.73-59.45a8.94 8.94 0 0 1-11.9-3.83A8.65 8.65 0 0 1 160.91 64a9 9 0 0 1 11.93 3.87 8.66 8.66 0 0 1-3.94 11.72m-48-37.15a8.88 8.88 0 1 1-8.36-9.21 8.83 8.83 0 0 1 8.36 9.21m-89.81 6.63a6 6 0 0 1 1.79 8.45 6.28 6.28 0 0 1-8.61 1.76 6 6 0 0 1-1.78-8.45 6.28 6.28 0 0 1 8.61-1.76m-6 95.41a6.27 6.27 0 0 1 8.35 2.71 6.07 6.07 0 0 1-2.76 8.21 6.27 6.27 0 0 1-8.35-2.7 6.07 6.07 0 0 1 2.76-8.21m80.43 52.81a6.22 6.22 0 1 1 5.85 6.45 6.17 6.17 0 0 1-5.85-6.45m87.7-42.62a6 6 0 0 1-1.79-8.45 6.28 6.28 0 0 1 8.61-1.76 6 6 0 0 1 1.79 8.46 6.27 6.27 0 0 1-8.6 1.75m6-95.41a6.27 6.27 0 0 1-8.35-2.71 6.05 6.05 0 0 1 2.75-8.2 6.25 6.25 0 0 1 8.34 2.7 6.07 6.07 0 0 1-2.74 8.21M118.16 6.46a6.22 6.22 0 0 1-12.41-.69 6.22 6.22 0 0 1 12.41.69" id="Shape"/></g><g class="cls-2"><path class="cls-1" d="M292.27 78.85a2.16 2.16 0 0 1 .73-1.45 2.22 2.22 0 0 1 1.38-.48h6a2.13 2.13 0 0 1 1.45.56 1.65 1.65 0 0 1 .56 1.45 19.06 19.06 0 0 1-1.45 6.07 16 16 0 0 1-4 5.51 21 21 0 0 1-6.78 4 27.83 27.83 0 0 1-9.91 1.56 25.1 25.1 0 0 1-9.09-1.53 19.3 19.3 0 0 1-6.7-4.25 18.94 18.94 0 0 1-4.28-6.52 26.8 26.8 0 0 1-1.82-8.27q-.15-2.83-.15-6.26t.15-6.26a26.8 26.8 0 0 1 1.82-8.27 19 19 0 0 1 4.28-6.52 19.34 19.34 0 0 1 6.7-4.25 25.1 25.1 0 0 1 9.09-1.53 27.83 27.83 0 0 1 9.91 1.56 21 21 0 0 1 6.78 4 15.87 15.87 0 0 1 4 5.55 19.35 19.35 0 0 1 1.53 6.07 1.65 1.65 0 0 1-.56 1.45 2.13 2.13 0 0 1-1.45.56h-6a2.37 2.37 0 0 1-1.42-.48 2.09 2.09 0 0 1-.82-1.45 8.19 8.19 0 0 0-1-2.9 9 9 0 0 0-2.23-2.53 11.5 11.5 0 0 0-3.57-1.82 16.31 16.31 0 0 0-5.06-.71 13.18 13.18 0 0 0-5.06.89 10.65 10.65 0 0 0-3.61 2.38 10.17 10.17 0 0 0-2.23 3.57 15.22 15.22 0 0 0-.93 4.39q-.15 2.83-.15 6.26t.15 6.26a14.94 14.94 0 0 0 .93 4.43 10.21 10.21 0 0 0 2.23 3.54 10.64 10.64 0 0 0 3.61 2.38 13.18 13.18 0 0 0 5.06.89 16.28 16.28 0 0 0 5.06-.71 12 12 0 0 0 3.58-1.7 8.72 8.72 0 0 0 2.27-2.53 8.2 8.2 0 0 0 1-2.91zm46.25-35.6a2.35 2.35 0 0 1 1.79.63 5.4 5.4 0 0 1 1 1.9l18.25 47.07a1.68 1.68 0 0 1 .08.52 2 2 0 0 1-2 2h-5.36a2.79 2.79 0 0 1-2.08-.63 3.77 3.77 0 0 1-.82-1.23l-3.2-8.27h-23.53l-3.2 8.27a3.79 3.79 0 0 1-.82 1.23 2.79 2.79 0 0 1-2.08.63h-5.36a2 2 0 0 1-2-2 1.62 1.62 0 0 1 .08-.52l18.25-47.07a5.4 5.4 0 0 1 1-1.9 2.35 2.35 0 0 1 1.79-.63zm4.1 32.7l-8.19-21.23-8.2 21.28zM391 43.25q9.31 0 14.15 4.32t4.84 12a16.64 16.64 0 0 1-2.49 9.27 14.75 14.75 0 0 1-7.34 5.7l10.28 18.4a1.86 1.86 0 0 1 .22.82 1.65 1.65 0 0 1-1.66 1.63h-6.33a3 3 0 0 1-2.2-.71 5.22 5.22 0 0 1-1-1.3L389.76 76h-9.91v17.38a2 2 0 0 1-2 2h-6a2 2 0 0 1-2-2V45.27a2 2 0 0 1 2-2zm-11.15 23.46h10.8a13.31 13.31 0 0 0 6.78-1.49q2.57-1.48 2.57-5.65T397.43 54a13.91 13.91 0 0 0-6.78-1.42h-10.8zm63.6-23.46a28.43 28.43 0 0 1 9.55 1.46 18.24 18.24 0 0 1 6.78 4.13 18 18 0 0 1 4.22 6.48 28.82 28.82 0 0 1 1.75 8.49 102.22 102.22 0 0 1 0 11 28.82 28.82 0 0 1-1.75 8.51 18.24 18.24 0 0 1-4.13 6.48 18 18 0 0 1-6.67 4.13 27.28 27.28 0 0 1-9.35 1.45h-18.79a2 2 0 0 1-2-2V45.27a2 2 0 0 1 2-2zm12.21 20.56a15 15 0 0 0-.93-4.43 10.11 10.11 0 0 0-2.31-3.57 10.52 10.52 0 0 0-3.84-2.38 15.88 15.88 0 0 0-5.51-.86h-10v33.51h10.35a14.75 14.75 0 0 0 5.29-.86 10.48 10.48 0 0 0 3.72-2.35 9.89 9.89 0 0 0 2.27-3.57 15.38 15.38 0 0 0 .93-4.47 102.22 102.22 0 0 0 .04-11.02zm46.56-20.56a2.35 2.35 0 0 1 1.79.63 5.4 5.4 0 0 1 1 1.9l18.25 47.07a1.68 1.68 0 0 1 .08.52 2 2 0 0 1-2 2H516a2.79 2.79 0 0 1-2.08-.63 3.77 3.77 0 0 1-.82-1.23l-3.2-8.27h-23.55l-3.2 8.27a3.79 3.79 0 0 1-.82 1.23 2.79 2.79 0 0 1-2.08.63h-5.36a2 2 0 0 1-2-2 1.62 1.62 0 0 1 .08-.52l18.25-47.07a5.4 5.4 0 0 1 1-1.9 2.35 2.35 0 0 1 1.79-.63zm4.1 32.7l-8.19-21.23-8.2 21.28zm60.99 19.44a2.62 2.62 0 0 1-1.94-.67 13.74 13.74 0 0 1-1-1l-20.85-31v30.66a2 2 0 0 1-2 2h-6a2 2 0 0 1-2-2V45.27a2 2 0 0 1 2-2h5.21a2.62 2.62 0 0 1 1.94.67 14.15 14.15 0 0 1 1 1l20.85 31V45.27a2 2 0 0 1 2-2h6a2 2 0 0 1 2 2v48.11a2 2 0 0 1-2 2zm20.4-32.7a26.34 26.34 0 0 1 1.6-7.86 18 18 0 0 1 4.06-6.4 19.31 19.31 0 0 1 6.7-4.32 25.73 25.73 0 0 1 9.53-1.6 26 26 0 0 1 9.46 1.56 18.61 18.61 0 0 1 6.7 4.32 18.88 18.88 0 0 1 4.1 6.41 25.43 25.43 0 0 1 1.64 7.89q.07 1.42.11 3.13t0 3.54v3.54q0 1.71-.1 3.1a26.36 26.36 0 0 1-1.6 7.86 18 18 0 0 1-4.06 6.41 18.8 18.8 0 0 1-6.74 4.28 29.72 29.72 0 0 1-19 0 18.86 18.86 0 0 1-6.7-4.28 18 18 0 0 1-4.06-6.41 26.33 26.33 0 0 1-1.6-7.86q-.07-1.41-.11-3.13t0-3.54v-3.54q0-1.72.07-3.1zm33.74.37q-.3-5.36-3.46-8.3a13.4 13.4 0 0 0-16.76 0q-3.17 2.94-3.46 8.3-.15 2.83-.15 6.29t.15 6.29q.3 5.36 3.46 8.27a13.54 13.54 0 0 0 16.76 0q3.16-2.9 3.46-8.27.15-2.83.15-6.29t-.15-6.28z"/></g><g class="cls-2"><path class="cls-1" d="M285.18 114.39a1.65 1.65 0 0 1 1.63 1.63v2.17a1.65 1.65 0 0 1-1.63 1.63h-19.84v13.93H284a1.65 1.65 0 0 1 1.63 1.63v2.17a1.65 1.65 0 0 1-1.63 1.63h-18.66V155a1.65 1.65 0 0 1-1.63 1.63h-2.47a1.65 1.65 0 0 1-1.63-1.63v-39a1.65 1.65 0 0 1 1.63-1.63zm8.75 15.74a19 19 0 0 1 1.18-6.36 15 15 0 0 1 3.23-5.19 15.34 15.34 0 0 1 5.19-3.5 19.85 19.85 0 0 1 14.11 0 15.35 15.35 0 0 1 5.19 3.5 15 15 0 0 1 3.23 5.19 19 19 0 0 1 1.18 6.36q.18 5.37 0 10.73a20.1 20.1 0 0 1-1.24 6.36 15.3 15.3 0 0 1-3.23 5.22 14.83 14.83 0 0 1-5.16 3.5 20.12 20.12 0 0 1-14 0 14.81 14.81 0 0 1-5.16-3.5 15.29 15.29 0 0 1-3.23-5.22 20.07 20.07 0 0 1-1.24-6.36q-.23-5.36-.05-10.73zm27.56.3a15.59 15.59 0 0 0-.93-4.94 9.16 9.16 0 0 0-5.67-5.58 13.75 13.75 0 0 0-8.62 0 9.39 9.39 0 0 0-3.41 2.08 9.81 9.81 0 0 0-2.29 3.5 14 14 0 0 0-.9 4.94q-.12 2.71-.12 5.06t.12 5.07a14 14 0 0 0 .9 4.94 9.79 9.79 0 0 0 2.29 3.5 9.36 9.36 0 0 0 3.41 2.08 13.75 13.75 0 0 0 8.62 0 9.17 9.17 0 0 0 5.67-5.58 15.58 15.58 0 0 0 .93-4.94q.12-2.71.12-5.07t-.13-5.06zM368 114.39a1.65 1.65 0 0 1 1.6 1.61v24.12a23.7 23.7 0 0 1-.93 6.84 14.73 14.73 0 0 1-2.89 5.4 13 13 0 0 1-5 3.56 22.18 22.18 0 0 1-14.77 0 13 13 0 0 1-5-3.56 14.35 14.35 0 0 1-2.86-5.4 24.39 24.39 0 0 1-.9-6.84V116a1.65 1.65 0 0 1 1.63-1.63h2.47a1.65 1.65 0 0 1 1.63 1.63v24.42q0 5.91 2.77 8.77a10.24 10.24 0 0 0 7.72 2.86 10.34 10.34 0 0 0 7.75-2.86q2.8-2.86 2.8-8.77V116a1.65 1.65 0 0 1 1.63-1.63zm40.85 42.21a1.92 1.92 0 0 1-1.42-.57 7.17 7.17 0 0 1-1-1.24l-19.6-29.49V155a1.65 1.65 0 0 1-1.63 1.63h-2.47a1.65 1.65 0 0 1-1.63-1.63v-39a1.65 1.65 0 0 1 1.63-1.63h2.11a1.93 1.93 0 0 1 1.42.57 7.27 7.27 0 0 1 1 1.24l19.6 29.49V116a1.65 1.65 0 0 1 1.63-1.63H411a1.65 1.65 0 0 1 1.63 1.63v39a1.65 1.65 0 0 1-1.63 1.6zm48.36-25.87q.06 2.71.06 4.76t-.06 4.76a18.45 18.45 0 0 1-1.33 6.84 14.82 14.82 0 0 1-3.5 5.16 15.11 15.11 0 0 1-5.31 3.23 19.84 19.84 0 0 1-6.81 1.12H426.1a1.65 1.65 0 0 1-1.63-1.63V116a1.65 1.65 0 0 1 1.63-1.63h13.81a20.65 20.65 0 0 1 6.9 1.12 15.62 15.62 0 0 1 5.46 3.23 14.8 14.8 0 0 1 3.59 5.16 18.09 18.09 0 0 1 1.35 6.85zm-5.73.3a15.38 15.38 0 0 0-.69-4.19 9.49 9.49 0 0 0-5.64-6.09 14.23 14.23 0 0 0-5.49-.93h-9.46v31.35h9.8a14 14 0 0 0 5.46-.93 9.26 9.26 0 0 0 3.53-2.5 9.51 9.51 0 0 0 1.9-3.59 17.07 17.07 0 0 0 .63-4.19v-6.48q0-1.05-.04-2.48zm40.95 16.04H471.5l-3.14 8a3.06 3.06 0 0 1-.66 1 2.26 2.26 0 0 1-1.69.51h-2.23a1.34 1.34 0 0 1-1.33-1.33 2.28 2.28 0 0 1 .24-.84l14.77-38a5.18 5.18 0 0 1 .9-1.33 2.32 2.32 0 0 1 1.81-.66h3.62a2.32 2.32 0 0 1 1.81.66 5.23 5.23 0 0 1 .9 1.33l14.71 38a2.3 2.3 0 0 1 .24.84 1.34 1.34 0 0 1-1.33 1.33h-2.23a2.26 2.26 0 0 1-1.69-.51 3 3 0 0 1-.66-1zm-18.81-5.43h16.7L482 120.12zM531 114.39a1.65 1.65 0 0 1 1.63 1.63v2.17a1.65 1.65 0 0 1-1.63 1.63h-11.32V155a1.65 1.65 0 0 1-1.63 1.63h-2.47A1.65 1.65 0 0 1 514 155v-35.18h-11.32a1.65 1.65 0 0 1-1.63-1.63V116a1.65 1.65 0 0 1 1.63-1.63zm11.29 42.21a1.65 1.65 0 0 1-1.63-1.63V116a1.65 1.65 0 0 1 1.63-1.63h2.47a1.65 1.65 0 0 1 1.63 1.63v39a1.65 1.65 0 0 1-1.63 1.63zm14.41-26.47a19 19 0 0 1 1.18-6.36 15 15 0 0 1 3.23-5.19 15.34 15.34 0 0 1 5.19-3.5 19.85 19.85 0 0 1 14.11 0 15.35 15.35 0 0 1 5.19 3.5 15 15 0 0 1 3.23 5.19 19 19 0 0 1 1.18 6.36q.18 5.37 0 10.73a20.1 20.1 0 0 1-1.24 6.36 15.3 15.3 0 0 1-3.23 5.22 14.83 14.83 0 0 1-5.16 3.5 20.12 20.12 0 0 1-14 0 14.81 14.81 0 0 1-5.16-3.5 15.29 15.29 0 0 1-3.23-5.22 20.07 20.07 0 0 1-1.24-6.36q-.23-5.36-.05-10.73zm27.56.3a15.59 15.59 0 0 0-.93-4.94 9.16 9.16 0 0 0-5.67-5.58 13.75 13.75 0 0 0-8.62 0 9.39 9.39 0 0 0-3.41 2.08 9.81 9.81 0 0 0-2.29 3.5 14 14 0 0 0-.9 4.94q-.12 2.71-.12 5.06t.12 5.07a14 14 0 0 0 .9 4.94 9.79 9.79 0 0 0 2.29 3.5 9.36 9.36 0 0 0 3.41 2.08 13.75 13.75 0 0 0 8.62 0 9.17 9.17 0 0 0 5.67-5.58 15.58 15.58 0 0 0 .93-4.94q.12-2.71.12-5.07t-.12-5.06zM628 156.6a1.92 1.92 0 0 1-1.42-.57 7.17 7.17 0 0 1-1-1.24L606 125.3V155a1.65 1.65 0 0 1-1.63 1.63h-2.47a1.65 1.65 0 0 1-1.6-1.63v-39a1.65 1.65 0 0 1 1.63-1.63H604a1.93 1.93 0 0 1 1.42.57 7.27 7.27 0 0 1 1 1.24L626 145.69V116a1.65 1.65 0 0 1 1.63-1.63h2.47a1.65 1.65 0 0 1 1.63 1.63v39a1.65 1.65 0 0 1-1.63 1.63z"/></g></g></g></svg>