<svg xmlns="http://www.w3.org/2000/svg" viewBox="0 0 420.59 109"><defs><style>.cls-1{fill:#fff}.cls-2{isolation:isolate}</style></defs><title>cardano_hub</title><g id="Layer_2" data-name="Layer 2"><g id="Layer_1-2" data-name="Layer 1"><g id="cardano"><path class="cls-1" d="M50.45 46.25a8.06 8.06 0 0 1-7.22-4.37 7.89 7.89 0 0 1 3.58-10.67 8.29 8.29 0 0 1 3.63-.85 8.07 8.07 0 0 1 7.22 4.37 7.89 7.89 0 0 1-3.58 10.67 8.28 8.28 0 0 1-3.64.85M41 62.48h-.5a8.12 8.12 0 1 1 .47 0m9.55 16.19a8.16 8.16 0 0 1-4.43-1.3 7.89 7.89 0 0 1-3.48-5 7.79 7.79 0 0 1 1.15-6 8.17 8.17 0 0 1 11.19-2.29 7.88 7.88 0 0 1 3.48 5 7.74 7.74 0 0 1-1.15 6 8.09 8.09 0 0 1-6.76 3.59m19.05 0a8.05 8.05 0 0 1-7.22-4.37 7.77 7.77 0 0 1-.46-6.06 8 8 0 0 1 4-4.61 8.17 8.17 0 0 1 3.63-.85 8.06 8.06 0 0 1 7.22 4.37 7.89 7.89 0 0 1-3.58 10.67 8.19 8.19 0 0 1-3.63.85m9.53-16.27h-.46a7.94 7.94 0 1 1 6.49-13.22 7.78 7.78 0 0 1 2 5.74 8 8 0 0 1-8.06 7.49m-9.55-16.2a8.12 8.12 0 0 1-4.43-1.3 7.87 7.87 0 0 1-2.32-11 8.09 8.09 0 0 1 6.76-3.59 8.19 8.19 0 0 1 4.43 1.3 7.87 7.87 0 0 1 2.33 11 8.12 8.12 0 0 1-6.76 3.59M42.36 16.72a3.93 3.93 0 0 1-1.78 5.33 4.07 4.07 0 0 1-5.42-1.75 3.94 3.94 0 0 1 1.78-5.3 4.08 4.08 0 0 1 5.42 1.76M17.9 50.63a4 4 0 1 1-4.26 3.73 4 4 0 0 1 4.26-3.73m17.65 37.78a4.07 4.07 0 0 1 5.58-1.14 3.93 3.93 0 0 1 1.16 5.49 4.08 4.08 0 0 1-5.59 1.14 3.92 3.92 0 0 1-1.16-5.5m42.1 3.87a3.94 3.94 0 0 1 1.78-5.33 4.08 4.08 0 0 1 5.43 1.76 3.94 3.94 0 0 1-1.79 5.3 4.06 4.06 0 0 1-5.42-1.76m24.46-33.9a4 4 0 1 1 4.26-3.74 4 4 0 0 1-4.26 3.74M84.46 20.59a4.08 4.08 0 0 1-5.59 1.14 3.93 3.93 0 0 1-1.16-5.49 4.08 4.08 0 0 1 5.59-1.14 3.92 3.92 0 0 1 1.16 5.49m-50.93-16A2.55 2.55 0 0 1 32.37 8a2.63 2.63 0 0 1-3.51-1.14A2.55 2.55 0 0 1 30 3.42a2.64 2.64 0 0 1 3.51 1.13M2.76 52.06a2.57 2.57 0 1 1-.3 5.12 2.57 2.57 0 1 1 .3-5.12M29.23 102a2.64 2.64 0 0 1 3.62-.74 2.53 2.53 0 0 1 .75 3.56 2.64 2.64 0 0 1-3.61.74 2.55 2.55 0 0 1-.75-3.56m57.24 2.44a2.55 2.55 0 0 1 1.15-3.44 2.64 2.64 0 0 1 3.51 1.13 2.55 2.55 0 0 1-1.14 3.45 2.64 2.64 0 0 1-3.51-1.13m30.77-47.51a2.57 2.57 0 1 1 2.74-2.42 2.59 2.59 0 0 1-2.75 2.42M90.77 7a2.64 2.64 0 0 1-3.62.74 2.54 2.54 0 0 1-.75-3.56 2.64 2.64 0 0 1 3.6-.74A2.54 2.54 0 0 1 90.77 7M34.32 34.63a4.61 4.61 0 0 1 1.37 6.46 4.8 4.8 0 0 1-6.58 1.34A4.62 4.62 0 0 1 27.74 36a4.8 4.8 0 0 1 6.57-1.34m-4.67 31.8A4.78 4.78 0 0 1 36 68.5a4.64 4.64 0 0 1-2.11 6.27 4.8 4.8 0 0 1-6.38-2.07 4.62 4.62 0 0 1 2.1-6.27M55 86.3a4.75 4.75 0 1 1 4.47 4.93A4.73 4.73 0 0 1 55 86.3m30.68-11.92a4.63 4.63 0 0 1-1.37-6.47 4.8 4.8 0 0 1 6.57-1.34A4.62 4.62 0 0 1 92.26 73a4.8 4.8 0 0 1-6.58 1.35m4.67-31.8A4.78 4.78 0 0 1 84 40.51a4.63 4.63 0 0 1 2.1-6.27 4.79 4.79 0 0 1 6.38 2.07 4.63 4.63 0 0 1-2.11 6.27M64.67 22.7a4.75 4.75 0 1 1-4.47-4.93 4.72 4.72 0 0 1 4.47 4.93m-48 3.55a3.22 3.22 0 0 1 1 4.52 3.36 3.36 0 0 1-4.61.94 3.23 3.23 0 0 1-1-4.52 3.36 3.36 0 0 1 4.6-.94m-3.2 51a3.35 3.35 0 0 1 4.47 1.45 3.24 3.24 0 0 1-1.47 4.39 3.36 3.36 0 0 1-4.46-1.4 3.25 3.25 0 0 1 1.47-4.39m43 28.25a3.32 3.32 0 1 1 3.12 3.45 3.3 3.3 0 0 1-3.13-3.45m46.91-22.8a3.23 3.23 0 0 1-1-4.52 3.36 3.36 0 0 1 4.6-.94 3.24 3.24 0 0 1 1 4.53 3.36 3.36 0 0 1-4.6.94m3.21-51a3.36 3.36 0 0 1-4.47-1.45 3.24 3.24 0 0 1 1.47-4.39 3.34 3.34 0 0 1 4.42 1.4 3.25 3.25 0 0 1-1.47 4.39M63.21 3.45a3.33 3.33 0 0 1-6.64-.37 3.33 3.33 0 0 1 6.64.37" id="Shape"/></g><g class="cls-2"><path class="cls-1" d="M164.74 43.64l-3.61 4.27a8.39 8.39 0 0 0-6.13-3.19 6.84 6.84 0 0 0-6.83 7.11A6.88 6.88 0 0 0 155 59a9.19 9.19 0 0 0 6.16-2.87l3.62 3.87a14.79 14.79 0 0 1-10.12 4.48c-7.39 0-12.88-5.43-12.88-12.6s5.64-12.39 13.09-12.39a14.23 14.23 0 0 1 9.87 4.15zm9.07 16.07L172 64.22h-6.41l10.57-24.5h6.41l10.33 24.5h-6.65l-1.75-4.52zm5.39-13.79L175.63 55h7.07zm28 11.41h-4.9v6.9h-6.23V39.72h11c6.48 0 10.19 3.08 10.19 8.54 0 3.75-1.58 6.44-4.45 7.88l5.15 8.09h-7.07zm-.17-4.9c2.7 0 4.27-1.37 4.27-4s-1.57-3.85-4.27-3.85h-4.73v7.81zm25.79-12.71c7.7 0 13 5 13 12.25s-5.39 12.25-13.27 12.25h-10.27v-24.5zm-4.31 19.53H233c3.81 0 6.54-2.94 6.54-7.25s-2.87-7.32-6.83-7.32h-4.17zm26.39.46l-1.79 4.52h-6.41l10.57-24.5h6.41L274 64.22h-6.65l-1.75-4.52zm5.39-13.79L256.72 55h7.07zm33.99 18.3L283 49.14v15.08h-5.85v-24.5h5.5L294 54.84V39.72h5.81v24.5zm36.15-12.28c0 7.14-5.67 12.57-13.27 12.57s-13.23-5.39-13.23-12.57 5.67-12.43 13.23-12.43 13.27 5.32 13.27 12.43zM310.3 52a7.13 7.13 0 0 0 6.93 7.32C321 59.29 324 56.1 324 52a6.93 6.93 0 0 0-6.79-7.25A7 7 0 0 0 310.3 52zm52.12 12.22V53.44h-14.77v10.78h-2.8v-24.5h2.8v11.06h14.77V39.72h2.8v24.5zm31.12-10.08c0 6.37-3.85 10.22-10.26 10.22S373 60.51 373 54.14V39.72h2.8v14.42c0 4.76 2.87 7.53 7.53 7.53s7.46-2.76 7.46-7.53V39.72h2.8zm18.05-14.42c4.94 0 7.91 2.28 7.91 6.13a5.33 5.33 0 0 1-4.5 5.53c3.54.53 5.6 2.84 5.6 6.2 0 4.17-3.29 6.65-8.82 6.65h-10.5V39.72zm-7.53 10.57h7.39c3.29 0 5.21-1.43 5.21-4s-1.92-3.89-5.21-3.89h-7.39zm0 11.27h7.39c4 0 6.3-1.58 6.3-4.38s-2.31-4.18-6.3-4.18h-7.39z"/></g></g></g></svg>