<svg xmlns="http://www.w3.org/2000/svg" viewBox="0 0 374.62 87.87"><defs><style>.cls-1{fill:#fff}</style></defs><title>IOHK_Logo</title><g id="Layer_2" data-name="Layer 2"><path class="cls-1" d="M142.88 33.71h2.45v20.44h-2.45zm98.75-12.01h2.45v44.46h-2.45zm-75.86 28.65h.09a5.1 5.1 0 0 1-.21-1.4V33.71h2.45v20.44h-2.45L155 37.74h-.09a4.94 4.94 0 0 1 .2 1.4v15h-2.45V33.71h2.45zM177.86 46v8.18h-2.45V33.71h10.8a2.2 2.2 0 0 1 1.4.59l.7.58a1.83 1.83 0 0 1 .7 1.46v7a1.82 1.82 0 0 1-.7 1.46l-.7.58a2.19 2.19 0 0 1-1.4.58h-8.35zm0-10.22v8.18h7.27a3.16 3.16 0 0 0 .67 0 1.48 1.48 0 0 0 .41-.25.87.87 0 0 0 .31-.34 2.16 2.16 0 0 0 0-.57V37a2.23 2.23 0 0 0 0-.57.86.86 0 0 0-.31-.34 1.48 1.48 0 0 0-.41-.25 3.08 3.08 0 0 0-.67 0zm30.81-2.07h2.45v17.81a1.82 1.82 0 0 1-.7 1.46l-.7.59a2.19 2.19 0 0 1-1.4.58h-9.93a2.22 2.22 0 0 1-1.41-.58l-.7-.59a1.81 1.81 0 0 1-.7-1.46V33.71H198v17.2a2.32 2.32 0 0 0 0 .57.85.85 0 0 0 .31.34 1.37 1.37 0 0 0 .41.25 3 3 0 0 0 .67 0h7.77a3.18 3.18 0 0 0 .67 0 1.37 1.37 0 0 0 .41-.25.84.84 0 0 0 .31-.34 2 2 0 0 0 0-.57v-17.2zm6.66 0h15.42v2.05h-6.49v18.39h-2.45V35.76h-6.48v-2.05zm43.77 0h10.69a2.22 2.22 0 0 1 1.4.58l.7.58a1.82 1.82 0 0 1 .7 1.46v15.19a1.82 1.82 0 0 1-.7 1.46l-.7.59a2.21 2.21 0 0 1-1.4.58H259.1a2.22 2.22 0 0 1-1.4-.58L257 53a1.82 1.82 0 0 1-.7-1.46v-15.2a1.82 1.82 0 0 1 .7-1.46l.7-.58a2.2 2.2 0 0 1 1.4-.59m11 17.2V37a2.38 2.38 0 0 0 0-.57.94.94 0 0 0-.31-.34 1.36 1.36 0 0 0-.41-.25 2.9 2.9 0 0 0-.67 0h-8.53a3 3 0 0 0-.67 0 1.35 1.35 0 0 0-.41.25 1 1 0 0 0-.31.34 2.27 2.27 0 0 0 0 .57v14a2.34 2.34 0 0 0 0 .57.86.86 0 0 0 .31.34 1.4 1.4 0 0 0 .41.25 3.18 3.18 0 0 0 .67 0h8.53a3 3 0 0 0 .67 0 1.48 1.48 0 0 0 .41-.25.88.88 0 0 0 .31-.34 2.34 2.34 0 0 0 0-.57M293 33.71h2.45v17.81a1.81 1.81 0 0 1-.7 1.46l-.7.59a2.19 2.19 0 0 1-1.4.58h-9.95a2.2 2.2 0 0 1-1.4-.58l-.7-.59a1.83 1.83 0 0 1-.7-1.46V33.71h2.45v17.2a2.06 2.06 0 0 0 0 .57.81.81 0 0 0 .31.34 1.37 1.37 0 0 0 .41.25 3 3 0 0 0 .67 0h7.77a3.13 3.13 0 0 0 .67 0 1.42 1.42 0 0 0 .41-.25.81.81 0 0 0 .31-.34 2 2 0 0 0 0-.57v-17.2zm6.63 0h15.42v2.05h-6.48v18.39h-2.45V35.76h-6.49v-2.05zM321.74 46v8.18h-2.45V33.71h10.81a2.18 2.18 0 0 1 1.4.59l.7.58a1.83 1.83 0 0 1 .7 1.46v7a1.82 1.82 0 0 1-.7 1.46l-.7.58a2.18 2.18 0 0 1-1.4.58h-8.35zm0-10.22v8.18H329a3.15 3.15 0 0 0 .67 0 1.48 1.48 0 0 0 .41-.25.89.89 0 0 0 .31-.34 2.26 2.26 0 0 0 0-.57V37a2.34 2.34 0 0 0 0-.57.86.86 0 0 0-.31-.34 1.48 1.48 0 0 0-.41-.25 3.06 3.06 0 0 0-.67 0zm30.81-2.07H355v17.81a1.81 1.81 0 0 1-.7 1.48l-.7.59a2.21 2.21 0 0 1-1.4.58h-9.93a2.22 2.22 0 0 1-1.4-.58l-.7-.59a1.81 1.81 0 0 1-.7-1.46V33.71h2.45v17.2a2.32 2.32 0 0 0 0 .57.86.86 0 0 0 .31.34 1.42 1.42 0 0 0 .41.25 3.18 3.18 0 0 0 .67 0h7.77a3.18 3.18 0 0 0 .67 0 1.48 1.48 0 0 0 .41-.25.84.84 0 0 0 .31-.34 2.22 2.22 0 0 0 0-.57v-17.2zm6.66 0h15.41v2.05h-6.48v18.39h-2.45V35.76h-6.48v-2.05zM7.5 3.3a3.76 3.76 0 0 0-7.5.43 3.72 3.72 0 0 0 7.37.73c27.25.24 49.53 16.35 51.29 36.63a51.32 51.32 0 0 0-8.68-12C43.5 22.4 32.03 14.42 14.26 14.42a.53.53 0 0 0-.2 0 3.74 3.74 0 1 0 0 1.09.53.53 0 0 0 .18 0c17.34 0 28.52 7.77 34.85 14.28A50.77 50.77 0 0 1 57.33 41a73.22 73.22 0 0 0-8.7-6.7c-6.32-4.14-16.18-9.07-27.26-9.08a3.74 3.74 0 1 0 0 1.16c16.55 0 30.58 11.28 35.61 15.88-5.58-2-18.91-6.4-28.89-6.59a3.73 3.73 0 1 0-3.72 4 3.83 3.83 0 0 0 3.62-3c9.86.17 23.17 4.63 28.66 6.44H37.37A3.68 3.68 0 0 0 33.66 40a3.78 3.78 0 0 0-3.73 3.78 3.72 3.72 0 0 0 7.39.62h19C50.73 46.82 37.7 50.77 28 50.93a3.69 3.69 0 0 0-3.62-2.82 3.74 3.74 0 1 0 3.72 4.06c10-.19 23.31-4.59 28.89-6.59-5 4.59-19.06 15.86-35.61 15.88a3.73 3.73 0 1 0 0 1.17c11.08 0 20.94-4.95 27.26-9.08a72.75 72.75 0 0 0 8.81-6.79 50.46 50.46 0 0 1-8.26 11.33c-6.35 6.51-17.54 14.3-34.9 14.3h-.17a3.73 3.73 0 1 0 0 1.09.61.61 0 0 0 .22 0c17.77 0 29.23-8 35.71-14.67A51.27 51.27 0 0 0 58.61 47C56.39 67 34.24 82.74 7.26 82.93a3.72 3.72 0 1 0 .21 1.21s.08 0 .08-.05c28.82-.27 52-18 52.56-39.93v-.47C60.1 21.58 36.52 3.57 7.5 3.3m-1.24.83a2.58 2.58 0 1 1 0-.56.58.58 0 0 0-.09.31.56.56 0 0 0 .06.26m4.15 13.5A2.57 2.57 0 1 1 13 15.06a2.57 2.57 0 0 1-2.57 2.57m7.26 10.75a2.57 2.57 0 1 1 2.57-2.57 2.57 2.57 0 0 1-2.57 2.57m9.2 8.11a2.57 2.57 0 1 1 0-.55.59.59 0 0 0-.1.32.49.49 0 0 0 0 .23m6.78 9.91a2.57 2.57 0 1 1 2.57-2.57 2.57 2.57 0 0 1-2.57 2.57m-9.3 8a2.57 2.57 0 1 1 2.52-3.07.51.51 0 0 0 0 .23.59.59 0 0 0 .1.32 2.57 2.57 0 0 1-2.56 2.53m-6.65 10.2A2.57 2.57 0 1 1 20.25 62a2.57 2.57 0 0 1-2.57 2.57m-7.26 10.79A2.57 2.57 0 1 1 13 72.8a2.57 2.57 0 0 1-2.57 2.57M3.73 86.7a2.57 2.57 0 1 1 2.47-3.24.56.56 0 0 0 .07.27 3.38 3.38 0 0 1 0 .36 2.57 2.57 0 0 1-2.54 2.61m58.18-42.56c.61 21.86 23.6 39.66 52.41 39.94v.05a3.65 3.65 0 1 0 .18-1.21C87.48 82.73 65.33 67 63.11 47a51.48 51.48 0 0 0 8.61 11.87c6.48 6.69 17.95 14.67 35.72 14.67a.58.58 0 0 0 .21 0 3.73 3.73 0 1 0 0-1.09h-.16c-17.36 0-28.55-7.79-34.88-14.32a50.64 50.64 0 0 1-8.26-11.33 73.14 73.14 0 0 0 8.81 6.79c6.32 4.14 16.18 9.07 27.26 9.08a3.74 3.74 0 1 0 0-1.17c-16.55 0-30.58-11.29-35.61-15.88 5.58 2 18.91 6.39 28.89 6.58a3.73 3.73 0 0 0 7.45-.32 3.73 3.73 0 0 0-7.36-.91C84 50.76 71 46.81 65.35 44.39h19a3.73 3.73 0 0 0 7.39-.61A3.77 3.77 0 0 0 88.05 40a3.66 3.66 0 0 0-3.7 3.17H65.08c5.49-1.81 18.79-6.28 28.65-6.44a3.87 3.87 0 0 0 3.63 3 3.74 3.74 0 1 0-3.72-4.06c-10 .19-23.31 4.59-28.89 6.59 5-4.59 19.06-15.85 35.61-15.88a3.73 3.73 0 1 0 0-1.16c-11.08 0-20.94 4.94-27.26 9.08a72.59 72.59 0 0 0-8.7 6.7 50.56 50.56 0 0 1 8.19-11.17c6.33-6.51 17.51-14.28 34.84-14.28a.53.53 0 0 0 .18 0 3.74 3.74 0 1 0 0-1.1.58.58 0 0 0-.2 0c-17.77 0-29.23 8-35.72 14.67a51.19 51.19 0 0 0-8.68 12c1.77-20.27 24-36.38 51.3-36.62A3.73 3.73 0 1 0 118 0a3.67 3.67 0 0 0-3.64 3.3c-29 .27-52.45 18.28-52.45 40.39zm53.54-40a.56.56 0 0 0 0-.57 2.58 2.58 0 1 1 0 .57m-6.72 10.93a2.57 2.57 0 1 1 2.57 2.57 2.57 2.57 0 0 1-2.57-2.57m-7.27 10.76a2.57 2.57 0 1 1 2.54 2.56 2.57 2.57 0 0 1-2.57-2.57m-16 18A2.57 2.57 0 1 1 88 46.39a2.57 2.57 0 0 1-2.57-2.57m16 18.21a2.57 2.57 0 1 1 2.57 2.58 2.57 2.57 0 0 1-2.53-2.61m7.27 10.75a2.57 2.57 0 1 1 2.57 2.57 2.57 2.57 0 0 1-2.57-2.57m6.68 11.33a2.27 2.27 0 0 1 0-.36.55.55 0 0 0 .07-.27 2.55 2.55 0 1 1-.1.67M94.84 36.49a.55.55 0 0 0 0-.23.59.59 0 0 0-.1-.32 2.58 2.58 0 1 1 .05.54m-.05 15.42a.6.6 0 0 0 .1-.32.58.58 0 0 0 0-.23 2.56 2.56 0 1 1-.05.54" id="Layer_1-2" data-name="Layer 1"/></g></svg>